<?xml version="1.0" encoding="UTF-8"?>
<svg id="Livello_2" xmlns="http://www.w3.org/2000/svg" viewBox="0 0 734.3 734.3">
  <defs>
    <style>
      .cls-1 {
        fill: #fff;
      }

      .cls-2 {
        fill: #191817;
      }
    </style>
  </defs>
  <g id="Layer_1">
    <g id="social_media_logo_and_contact_us_icons_collection_set">
      <g id="at">
        <circle id="circle" class="cls-2" cx="367.15" cy="367.15" r="367.15"/>
        <path class="cls-1" d="M367.16,173c-106.91,0-193.9,86.87-194.11,193.73,0,.13-.04.25-.04.38,0,107.07,87.11,194.18,194.18,194.18,29.42,0,57.74-6.46,84.15-19.2,6.62-3.2,9.4-11.16,6.21-17.78-3.2-6.62-11.14-9.41-17.78-6.21-22.78,10.98-47.19,16.55-72.58,16.55-80.72,0-148.29-57.39-164.06-133.51-.03-.21-.02-.41-.07-.62-2.25-10.64-3.39-21.88-3.39-33.42,0-92.35,75.13-167.48,167.49-167.48s167.49,75.13,167.49,167.48v45.14c0,17.61-14.33,31.94-31.95,31.94s-31.9-14.3-31.93-31.89v-117.36c0-7.35-5.96-13.32-13.32-13.32s-13.32,5.96-13.32,13.32v3.04c-19-21.15-46.45-34.55-77.05-34.55-57.17,0-103.68,46.51-103.68,103.69s46.51,103.68,103.68,103.68c32.54,0,61.59-15.1,80.62-38.62,8.18,22.5,29.72,38.64,55.01,38.64,32.3,0,58.57-26.28,58.57-58.58v-45.14c0-107.04-87.08-194.12-194.12-194.12ZM367.08,444.18c-42.48,0-77.05-34.56-77.05-77.05s34.56-77.05,77.05-77.05,77.02,34.54,77.05,77c0,.01,0,.02,0,.03v.13c-.06,42.43-34.6,76.94-77.05,76.94Z"/>
      </g>
    </g>
  </g>
</svg>