<?xml version="1.0" encoding="UTF-8"?>
<svg id="Livello_2" xmlns="http://www.w3.org/2000/svg" viewBox="0 0 734.3 734.3">
  <defs>
    <style>
      .cls-1 {
        fill: #fff;
      }

      .cls-2 {
        fill: #191817;
      }
    </style>
  </defs>
  <g id="Layer_1">
    <g id="social_media_logo_and_contact_us_icons_collection_set">
      <g id="call">
        <circle id="circle" class="cls-2" cx="367.15" cy="367.15" r="367.15"/>
        <g id="call-2" data-name="call">
          <path class="cls-1" d="M535.48,512.15c14.5-14.46,12.54-38.54-4.11-50.8l-57.58-42.3c-13.39-9.85-31.87-8.49-43.53,3.13l-9.86,9.86c-1.13,1.13-2.32,2.16-3.56,3.09-4.71,4.71-11.76,6.21-17.99,3.84-50.07-19-84.61-53.61-103.72-103.73-2.38-6.24-.89-13.29,3.84-18.01l1.96-1.96c.42-.47.85-.93,1.3-1.38l9.85-9.85c11.66-11.66,12.99-30.13,3.17-43.53l-42.33-57.62c-12.22-16.61-36.32-18.57-50.79-4.1l-10.2,10.2c-11.64,11.64-19.3,26.63-21.81,42.83-.35,2.22-.59,4.47-.74,6.73-2.57,39.64,11.72,82.16,41.02,127.25.99,1.52,1.99,3.04,3.01,4.57,29.22,43.65,66.87,81.3,110.52,110.52,1.44.96,2.87,1.91,4.31,2.84,45.18,29.39,87.8,43.76,127.51,41.17,2.25-.14,4.5-.39,6.71-.73,16.2-2.5,31.21-10.18,42.82-21.79l10.2-10.24Z"/>
          <g>
            <path class="cls-1" d="M545.16,361.86c-3.31-44.7-22.59-86.76-54.27-118.45-31.67-31.67-73.73-50.94-118.44-54.27-6.77-.49-12.67,4.57-13.17,11.35-.51,6.77,4.58,12.67,11.35,13.17,38.84,2.89,75.37,19.63,102.88,47.14,27.52,27.52,44.26,64.06,47.14,102.88.48,6.46,5.87,11.39,12.25,11.39.31,0,.61-.01.92-.03,6.77-.5,11.86-6.4,11.35-13.17Z"/>
            <path class="cls-1" d="M442.19,292.1c-18.72-18.73-42.48-30.39-68.7-33.74-6.73-.89-12.9,3.9-13.75,10.64-.86,6.74,3.9,12.89,10.64,13.75,20.77,2.66,39.59,11.9,54.43,26.74,14.84,14.84,24.08,33.66,26.74,54.44.79,6.21,6.08,10.74,12.18,10.74.52,0,1.05-.03,1.58-.1,6.74-.86,11.5-7.02,10.64-13.76-3.35-26.23-15.02-49.98-33.75-68.7Z"/>
          </g>
        </g>
      </g>
    </g>
  </g>
</svg>