<?xml version="1.0" encoding="UTF-8"?>
<svg id="Livello_2" xmlns="http://www.w3.org/2000/svg" viewBox="0 0 734.3 734.3">
  <defs>
    <style>
      .cls-1 {
        fill: #fff;
      }

      .cls-2 {
        fill: #191817;
      }
    </style>
  </defs>
  <g id="Layer_1">
    <g id="social_media_logo_and_contact_us_icons_collection_set">
      <g id="globe">
        <circle id="circle" class="cls-2" cx="367.15" cy="367.15" r="367.15"/>
        <path class="cls-1" d="M573.22,367.46c0-.1.01-.2.01-.31,0-38.41-10.64-75.88-30.76-108.36-3.08-4.96-6.35-9.77-9.7-14.27-36.31-48.99-93-79.48-153.49-83.09-4.03-.24-8.08-.36-12.14-.36-20.33,0-40.35,3.05-59.46,8.84-42.04,12.74-79.64,38.75-106.26,74.73-3.31,4.47-6.47,9.12-9.42,13.85-20.25,32.56-30.95,70.15-30.95,108.67,0,.1.01.2.01.31,0,.04-.01.07-.01.11,0,.08.02.16.02.24.13,40.38,11.91,79.44,34.12,112.99,1.9,2.88,3.92,5.65,5.95,8.41.1.15.16.31.27.45.17.23.36.45.53.68,1.43,1.91,2.92,3.75,4.41,5.6,1.07,1.33,2.12,2.69,3.22,4,1.85,2.2,3.77,4.31,5.7,6.42.75.82,1.48,1.66,2.25,2.46,2.39,2.52,4.85,4.96,7.35,7.35.3.29.6.59.9.87,31.99,30.21,72.85,49.5,116.94,54.72,1.08.13,2.16.19,3.24.3,2.92.3,5.84.61,8.79.79,4.12.25,8.25.39,12.39.39s8.28-.13,12.4-.39c2.97-.18,5.9-.49,8.84-.79,1.05-.11,2.11-.17,3.16-.3,44.15-5.22,85.05-24.54,117.06-54.81.11-.1.21-.21.32-.31,2.7-2.57,5.35-5.19,7.92-7.91.62-.65,1.2-1.33,1.81-1.99,2.08-2.26,4.15-4.54,6.14-6.9,1.01-1.2,1.96-2.45,2.94-3.67,1.58-1.96,3.17-3.91,4.68-5.93.12-.16.25-.31.37-.46.08-.1.12-.22.19-.33,2.16-2.93,4.29-5.89,6.31-8.95,22.09-33.47,33.8-72.42,33.92-112.69,0-.08.02-.15.02-.24,0-.04-.01-.07-.01-.11ZM552.18,357.21h-91.49c-.52-25.1-2.98-48.91-7.08-70.7,25.62-5.22,48.67-12.76,67.67-22.36,1.23,1.83,2.44,3.67,3.61,5.56,16.35,26.39,25.65,56.46,27.3,87.51ZM502.92,493.26c-.43.47-.85.95-1.29,1.41-2.14,2.25-4.34,4.44-6.59,6.58-.17.17-.35.34-.52.51-22.69,21.4-50.49,36.72-80.53,44.62,14.79-18.45,26.94-45.48,35.15-78.27,22.44,4.55,42.74,10.93,59.42,18.87-1.83,2.15-3.73,4.22-5.64,6.28ZM367.15,552.52c-22.89,0-47.5-33.55-61.48-88.02,19.53-2.82,40.24-4.34,61.34-4.34s42,1.53,61.6,4.38c-13.98,54.45-38.59,87.98-61.47,87.98ZM247,508.24c-2.41-2.05-4.77-4.17-7.09-6.35-.41-.39-.81-.78-1.21-1.18-2.01-1.92-3.98-3.88-5.9-5.9-.78-.82-1.53-1.68-2.3-2.52-1.57-1.7-3.13-3.4-4.64-5.17-.07-.08-.13-.16-.19-.24,16.71-7.93,37.03-14.29,59.48-18.82,8.21,32.81,20.37,59.87,35.16,78.33-26.88-7.07-51.97-20.07-73.21-38.07-.03-.03-.06-.05-.09-.08ZM367.01,439.45c-22.84,0-45,1.64-65.86,4.71-3.8-20.03-6.24-42.25-6.8-66.23h145.59c-.56,23.99-3,46.23-6.8,66.27-20.94-3.1-43.19-4.75-66.13-4.75ZM294.33,357.21c.52-24.31,2.97-46.82,6.82-67.08,20.86,3.07,43.03,4.71,65.86,4.71s45.19-1.65,66.13-4.75c3.86,20.27,6.3,42.8,6.83,67.12h-145.64ZM230.42,242.09c.61-.67,1.2-1.37,1.82-2.03,2.42-2.56,4.9-5.04,7.45-7.45.43-.41.89-.78,1.32-1.18,2.13-1.97,4.28-3.91,6.49-5.77.92-.78,1.88-1.5,2.82-2.26,1.77-1.43,3.54-2.87,5.35-4.23,1.1-.82,2.22-1.6,3.34-2.39,1.71-1.23,3.43-2.46,5.18-3.63,1.2-.8,2.43-1.56,3.65-2.33,1.71-1.09,3.43-2.17,5.17-3.2,1.28-.76,2.58-1.47,3.88-2.2,1.73-.97,3.47-1.92,5.23-2.83,1.34-.69,2.7-1.36,4.06-2.02,1.76-.86,3.54-1.69,5.32-2.5,1.39-.62,2.79-1.23,4.2-1.82,1.8-.76,3.62-1.48,5.44-2.18,1.42-.55,2.85-1.08,4.29-1.59,1.85-.65,3.7-1.27,5.57-1.87,1.45-.46,2.9-.93,4.37-1.36,1.63-.48,3.28-.91,4.93-1.34-14.79,18.46-26.94,45.5-35.14,78.3-22.44-4.54-42.75-10.89-59.46-18.81,1.54-1.82,3.13-3.58,4.74-5.33ZM423.25,190.61c1.87.6,3.73,1.21,5.58,1.87,1.43.51,2.86,1.04,4.27,1.58,1.83.7,3.66,1.43,5.46,2.19,1.39.58,2.78,1.18,4.16,1.8,1.8.81,3.59,1.65,5.36,2.51,1.35.65,2.69,1.31,4.02,2,1.78.92,3.54,1.88,5.29,2.86,1.27.71,2.55,1.41,3.8,2.15,1.78,1.05,3.52,2.14,5.27,3.25,1.19.75,2.39,1.49,3.56,2.27,1.8,1.2,3.55,2.45,5.31,3.71,1.06.76,2.15,1.5,3.19,2.29,1.89,1.42,3.74,2.91,5.58,4.4.86.7,1.75,1.37,2.6,2.08,2.32,1.95,4.58,3.98,6.81,6.05.33.31.68.59,1,.9,2.55,2.41,5.04,4.89,7.46,7.45.64.68,1.25,1.41,1.88,2.1,1.58,1.72,3.15,3.46,4.66,5.24-16.68,7.94-36.96,14.31-59.39,18.86-8.21-32.78-20.35-59.81-35.13-78.25,1.63.43,3.27.85,4.89,1.33,1.46.43,2.9.89,4.35,1.35ZM367.15,181.78c22.88,0,47.49,33.53,61.47,87.97-19.61,2.85-40.4,4.38-61.6,4.38s-41.81-1.52-61.34-4.34c13.98-54.47,38.59-88.01,61.47-88.01ZM209.6,269.42c1.09-1.74,2.33-3.39,3.48-5.11,19.01,9.55,42.03,17.06,67.61,22.25-4.1,21.78-6.56,45.57-7.07,70.65h-91.49c1.66-31.15,11.03-61.33,27.48-87.79ZM182.17,377.93h91.46c.55,24.78,3.01,48.27,7.06,69.81-25.63,5.2-48.7,12.73-67.72,22.31-.16-.23-.33-.45-.48-.68-18.1-27.33-28.43-58.75-30.31-91.43ZM522,469.08c-.24.36-.5.7-.74,1.06-19-9.6-42.04-17.14-67.65-22.35,4.06-21.55,6.52-45.06,7.07-69.86h91.46c-1.87,32.57-12.14,63.9-30.13,91.16Z"/>
      </g>
    </g>
  </g>
</svg>