<?xml version="1.0" encoding="UTF-8"?>
<svg id="Livello_2" xmlns="http://www.w3.org/2000/svg" viewBox="0 0 734.3 734.3">
  <defs>
    <style>
      .cls-1 {
        fill: #fff;
      }

      .cls-2 {
        fill: #191817;
      }
    </style>
  </defs>
  <g id="Layer_1">
    <g id="social_media_logo_and_contact_us_icons_collection_set">
      <g id="home">
        <circle id="circle" class="cls-2" cx="367.15" cy="367.15" r="367.15"/>
        <path id="home-2" data-name="home" class="cls-1" d="M566.88,373.02l-64.28-64.28v-75.02c0-6.73-5.46-12.19-12.19-12.19h-45.92c-6.75,0-12.19,5.46-12.19,12.19v4.8l-56.69-56.49c-4.76-4.74-12.46-4.74-17.22.02l-190.98,190.97c-3.49,3.49-4.52,8.72-2.63,13.28,1.87,4.56,6.32,7.53,11.25,7.53h39.57v149.81c0,6.73,5.46,12.19,12.19,12.19h79.27c6.73,0,12.19-5.46,12.19-12.19v-100.96c0-6.73,5.46-12.19,12.19-12.19h71.39c6.73,0,12.19,5.46,12.19,12.19v100.96c0,6.73,5.46,12.19,12.19,12.19h79.27c6.73,0,12.19-5.46,12.19-12.19v-149.81h39.24c4.04,0,7.96-1.82,10.28-5.13,3.51-5.01,2.79-11.56-1.31-15.68Z"/>
      </g>
    </g>
  </g>
</svg>