<?xml version="1.0" encoding="UTF-8"?>
<svg id="Livello_2" xmlns="http://www.w3.org/2000/svg" viewBox="0 0 734.3 734.3">
  <defs>
    <style>
      .cls-1 {
        fill: #fff;
      }

      .cls-2 {
        fill: #191817;
      }
    </style>
  </defs>
  <g id="Layer_1">
    <g id="social_media_logo_and_contact_us_icons_collection_set">
      <g id="info">
        <circle id="circle" class="cls-2" cx="367.15" cy="367.15" r="367.15"/>
        <g>
          <path class="cls-1" d="M366.45,238.86h.75c22.06,0,39.95-17.89,39.95-39.95s-17.89-39.95-39.95-39.95h-.75c-22.06,0-39.95,17.89-39.95,39.95s17.89,39.95,39.95,39.95Z"/>
          <path class="cls-1" d="M445.46,529.7h-41.79v-203.92c0-14.71-11.92-26.63-26.63-26.63h-68.42c-14.71,0-26.63,11.92-26.63,26.63s11.92,26.63,26.63,26.63h41.79v177.29h-41.79c-14.71,0-26.63,11.92-26.63,26.63s11.92,26.63,26.63,26.63h136.85c14.71,0,26.63-11.92,26.63-26.63s-11.92-26.63-26.63-26.63Z"/>
        </g>
      </g>
    </g>
  </g>
</svg>