<?xml version="1.0" encoding="UTF-8"?>
<svg id="Livello_2" xmlns="http://www.w3.org/2000/svg" viewBox="0 0 734.3 734.3">
  <defs>
    <style>
      .cls-1 {
        fill: #fff;
      }

      .cls-2 {
        fill: #191817;
      }
    </style>
  </defs>
  <g id="Layer_1">
    <g id="social_media_logo_and_contact_us_icons_collection_set">
      <g id="instagram">
        <circle id="circle" class="cls-2" cx="367.15" cy="367.15" r="367.15"/>
        <g id="logo">
          <path class="cls-1" d="M588.31,367.12c-.07-7.37-.07-14.38-.07-21.25,0-22.46.1-43.34-1.27-69.9-.85-19.6-3.9-37.75-10.32-53.69-5.61-15.09-14.27-28.05-25.47-39.2-10.47-10.98-23.55-19.45-39.15-25.48-16.11-6.3-34.01-9.71-53.69-10.25-18.32-1.19-50.6-1.52-91.19-1.35-40.59-.17-72.88.17-91.19,1.35-19.68.54-37.57,3.95-53.69,10.25-15.6,6.03-28.68,14.5-39.15,25.48-11.2,11.15-19.86,24.11-25.47,39.2-6.42,15.94-9.47,34.09-10.32,53.69-1.79,34.68-1.07,59.66-1.34,91.14v.05c.07,7.37.07,14.38.07,21.25,0,22.46-.1,43.34,1.27,69.9.85,19.6,3.9,37.75,10.32,53.69,5.61,15.09,14.27,28.05,25.47,39.2,10.47,10.98,23.55,19.45,39.15,25.48,16.11,6.3,34.01,9.71,53.69,10.25,18.32,1.19,50.6,1.52,91.19,1.35,40.59.17,72.87-.17,91.19-1.35,19.68-.54,37.57-3.95,53.69-10.25,15.6-6.03,28.68-14.5,39.15-25.48,11.2-11.15,19.86-24.11,25.47-39.2,6.42-15.94,9.47-34.09,10.32-53.69,1.79-34.68,1.07-59.66,1.34-91.14v-.05ZM547.2,456.26v.34c-.72,16.34-3.23,29.97-7.48,40.53l-.2.5-.19.5c-3.45,9.29-8.77,17.41-16.24,24.86l-.37.36-.36.37c-6.38,6.7-14.46,11.87-24.69,15.83l-.15.06c-11.72,4.58-25.27,7.11-40.28,7.53l-.74.02-.74.05c-13.42.87-36.98,1.31-70.06,1.31-5.91,0-12.06-.02-18.4-.04h-.33c-6.34.02-12.49.04-18.4.04-33.07,0-56.64-.44-70.06-1.31l-.74-.05-.74-.02c-15-.41-28.56-2.95-40.28-7.53l-.15-.06c-10.23-3.96-18.31-9.13-24.7-15.83l-.36-.37-.37-.36c-7.48-7.45-12.79-15.57-16.24-24.86l-.19-.5-.2-.5c-4.25-10.56-6.76-24.19-7.47-40.53v-.34c-1.24-23.82-1.23-43.1-1.23-63.5,0-8.18,0-16.63-.07-25.61.07-8.98.07-17.43.07-25.61,0-20.41-.02-39.69,1.22-63.51v-.33c.72-16.34,3.23-29.97,7.48-40.53l.2-.5.19-.5c3.45-9.29,8.76-17.42,16.24-24.87l.37-.36.36-.37c6.39-6.7,14.46-11.87,24.7-15.83l.15-.06c11.72-4.59,25.28-7.12,40.27-7.53l.75-.02.74-.05c13.42-.87,36.99-1.31,70.07-1.31,5.91,0,12.05.02,18.38.04h.33c6.34-.02,12.47-.04,18.39-.04,33.08,0,56.65.44,70.07,1.31l.74.05.75.02c15,.41,28.55,2.94,40.27,7.53l.15.06c10.23,3.96,18.31,9.13,24.69,15.83l.36.37.37.36c7.48,7.45,12.79,15.58,16.24,24.87l.19.5.2.5c4.25,10.56,6.76,24.19,7.47,40.53v.33c1.24,23.82,1.23,43.1,1.23,63.51,0,8.18,0,16.63.07,25.61-.07,8.98-.07,17.43-.07,25.61,0,20.41.02,39.69-1.22,63.5Z"/>
          <path class="cls-1" d="M367.15,253.58c-62.71,0-113.54,50.83-113.54,113.54s50.83,113.54,113.54,113.54,113.54-50.83,113.54-113.54-50.83-113.54-113.54-113.54ZM367.15,440.85c-40.66,0-73.73-33.08-73.73-73.73s33.07-73.73,73.73-73.73,73.73,33.07,73.73,73.73-33.07,73.73-73.73,73.73Z"/>
          <path class="cls-1" d="M485.2,222.54c-14.66,0-26.54,11.88-26.54,26.55s11.89,26.55,26.54,26.55,26.55-11.88,26.55-26.55-11.89-26.55-26.55-26.55Z"/>
        </g>
      </g>
    </g>
  </g>
</svg>