<?xml version="1.0" encoding="UTF-8"?>
<svg id="Livello_2" xmlns="http://www.w3.org/2000/svg" viewBox="0 0 734.3 734.3">
  <defs>
    <style>
      .cls-1 {
        fill: #fff;
      }

      .cls-2 {
        fill: #191817;
      }
    </style>
  </defs>
  <g id="Layer_1">
    <g id="social_media_logo_and_contact_us_icons_collection_set">
      <g id="location">
        <circle id="circle" class="cls-2" cx="367.15" cy="367.15" r="367.15"/>
        <g id="location-2" data-name="location">
          <path class="cls-1" d="M513.62,299.91c-4.83-73.73-71.83-135.58-146.57-135.58h-1.08c-38.76.32-75.19,15.6-102.6,43.07-27.77,27.77-43.05,64.61-43.05,103.73,0,125.19,132.91,250.32,138.56,255.58,2.33,2.17,5.31,3.25,8.28,3.25s5.94-1.08,8.26-3.25c5.8-5.42,138.56-130.41,138.56-255.53,0-3.77-.11-7.52-.36-11.26ZM367.16,377.14c-36.41,0-66.03-29.62-66.03-66.03s29.62-66.03,66.03-66.03,66.01,29.62,66.01,66.03-29.62,66.03-66.01,66.03Z"/>
        </g>
      </g>
    </g>
  </g>
</svg>