<?xml version="1.0" encoding="UTF-8"?>
<svg id="Livello_2" xmlns="http://www.w3.org/2000/svg" viewBox="0 0 734.3 734.3">
  <defs>
    <style>
      .cls-1 {
        fill: #fff;
      }

      .cls-2 {
        fill: #191817;
      }
    </style>
  </defs>
  <g id="Layer_1">
    <g id="social_media_logo_and_contact_us_icons_collection_set">
      <g id="message">
        <circle id="circle" class="cls-2" cx="367.15" cy="367.15" r="367.15"/>
        <g>
          <path class="cls-1" d="M321.73,350.5l.27.24s.02,0,.02.02l45.18,40.11,44.5-39.54,1.67-1.48,130.61-116.03c-1.07-.18-2.15-.26-3.24-.26H193.56c-1.09,0-2.17.08-3.24.26l131.32,116.61s.05.05.08.08Z"/>
          <path class="cls-1" d="M172.89,251.59c-.13.93-.19,1.87-.19,2.83v225.46c0,1.03.08,2.06.22,3.07l122.54-122.54-122.57-108.82Z"/>
          <path class="cls-1" d="M375.45,416.78c-2.36,2.09-5.3,3.14-8.25,3.14s-5.9-1.05-8.25-3.14l-44.86-39.84-123.58,123.58c1.01.15,2.03.22,3.07.22h347.18c1.02,0,2.05-.08,3.06-.23l-123.54-123.54-44.81,39.8Z"/>
          <path class="cls-1" d="M561.4,251.59l-122.54,108.85,122.51,122.51c.15-1.01.22-2.03.22-3.07v-225.46c0-.96-.07-1.9-.2-2.83Z"/>
        </g>
      </g>
    </g>
  </g>
</svg>