<?xml version="1.0" encoding="UTF-8"?>
<svg id="Livello_2" xmlns="http://www.w3.org/2000/svg" viewBox="0 0 734.3 734.3">
  <defs>
    <style>
      .cls-1 {
        fill: #fff;
      }

      .cls-2 {
        fill: #191817;
      }
    </style>
  </defs>
  <g id="Layer_1">
    <g id="social_media_logo_and_contact_us_icons_collection_set">
      <g id="telegram">
        <circle id="circle" class="cls-2" cx="367.15" cy="367.15" r="367.15"/>
        <path id="logo" class="cls-1" d="M543.31,241.15l-23.12,145.01-23.12,145.07c-1.75,10.84-8.79,18.97-17.7,22.82-8.91,3.91-19.69,3.55-28.78-2.59l-64.25-43.06-64.19-43.12c-6.38-4.28-10-11.02-10.54-18.01-.6-6.99,1.81-14.21,7.47-19.51l64.01-60.34s63.82-56.51,57.97-67.99c-7.1-10.5-88.56,49.68-88.56,49.68l-83.46,56.24c-9.88,6.62-21.02,10.9-32.52,12.53-11.56,1.69-23.43.78-34.81-2.83l-29.51-9.33-29.45-9.27c-6.99-2.23-10.72-8.19-10.96-14.27-.24-6.14,2.95-12.34,9.7-15.18l184.45-75.94,184.39-76c8.73-3.61,17.7-1.75,24.15,3.37,6.44,5.06,10.3,13.37,8.85,22.7Z"/>
      </g>
    </g>
  </g>
</svg>