<?xml version="1.0" encoding="UTF-8"?>
<svg id="Livello_2" xmlns="http://www.w3.org/2000/svg" viewBox="0 0 734.3 734.3">
  <defs>
    <style>
      .cls-1 {
        fill: #fff;
      }

      .cls-2 {
        fill: #191817;
      }
    </style>
  </defs>
  <g id="Layer_1">
    <g id="social_media_logo_and_contact_us_icons_collection_set">
      <g id="tiktok">
        <circle id="circle" class="cls-2" cx="367.15" cy="367.15" r="367.15"/>
        <path class="cls-1" d="M558.57,252.77v75.59c-39.1,0-75.32-12.49-104.9-33.7v152.86c0,53.82-30.75,100.6-75.59,123.69-19.02,9.79-40.57,15.32-63.39,15.32-76.63,0-138.97-62.36-138.97-139.01s62.35-139.02,138.97-139.02c6.46,0,12.81.44,19.04,1.3v77.19c-6.01-1.89-12.41-2.91-19.04-2.91-35,0-63.39,28.4-63.39,63.43s28.38,63.42,63.39,63.42,63.39-28.4,63.39-63.42V147.78h75.59v.03c0,57.97,46.97,104.96,104.9,104.96Z"/>
      </g>
    </g>
  </g>
</svg>