<?xml version="1.0" encoding="UTF-8"?>
<svg id="Livello_2" xmlns="http://www.w3.org/2000/svg" viewBox="0 0 734.3 734.3">
  <defs>
    <style>
      .cls-1 {
        fill: #fff;
      }

      .cls-2 {
        fill: #191817;
      }
    </style>
  </defs>
  <g id="Layer_1">
    <g id="social_media_logo_and_contact_us_icons_collection_set">
      <g id="user">
        <circle id="circle" class="cls-2" cx="367.15" cy="367.15" r="367.15"/>
        <g>
          <path class="cls-1" d="M545.24,511.59c-18.28-78.6-81.53-121.88-178.09-121.88s-159.81,43.28-178.09,121.88c-3.32,14.27.02,29.05,9.16,40.56,9.17,11.54,22.89,18.18,37.62,18.18h262.62c14.73,0,28.45-6.64,37.62-18.18,9.14-11.51,12.48-26.29,9.16-40.56Z"/>
          <path class="cls-1" d="M367.15,344.52c49.78,0,90.27-40.51,90.27-90.27s-40.49-90.29-90.27-90.29-90.27,40.51-90.27,90.29,40.49,90.27,90.27,90.27Z"/>
        </g>
      </g>
    </g>
  </g>
</svg>