<?xml version="1.0" encoding="UTF-8"?>
<svg id="Livello_2" xmlns="http://www.w3.org/2000/svg" viewBox="0 0 734.3 734.3">
  <defs>
    <style>
      .cls-1, .cls-2 {
        fill: #fff;
      }

      .cls-2 {
        fill-rule: evenodd;
      }

      .cls-3 {
        fill: #191817;
      }
    </style>
  </defs>
  <g id="Layer_1">
    <g id="social_media_logo_and_contact_us_icons_collection_set">
      <g id="whatsapp">
        <circle id="circle" class="cls-3" cx="367.15" cy="367.15" r="367.15"/>
        <g id="logo">
          <path class="cls-2" d="M367.22,156.9c-115.08,0-208.33,93.25-208.33,208.33,0,36.05,9.18,69.97,25.41,99.64l-17.96,112.54,112.15-23.54v-.13c26.87,12.64,56.93,19.69,88.73,19.69,114.93,0,208.19-93.25,208.19-208.19s-93.26-208.33-208.19-208.33ZM367.22,537.23c-29.27,0-56.8-7.32-81.02-20.22-.8-.4-1.46-.8-2.26-1.2l-48.95,10.24-24.61,5.19,3.86-24.61,7.85-49.09c-.66-.8-1.2-1.73-1.86-2.66-15.96-26.07-25.14-56.8-25.14-89.66,0-94.98,77.15-172.14,172.14-172.14s172,77.16,172,172.14-77.15,172.01-172,172.01Z"/>
          <path class="cls-1" d="M293.93,264.9c-18.98,1.6-33.53,30.68-32.53,51.16.28,8.59,1.7,16.37,4.39,23.24,12.64,32.36,35.79,61.85,61.68,84.73,15.04,13.29,32.44,23.88,51.11,31.23,17.62,6.94,39.15,13.89,58.02,8.81,2.33-.63,4.61-1.43,6.82-2.4,8.29-3.65,15.57-9.57,20.89-16.9,5.16-7.1,6.51-16.47,6.43-25.11-.03-2.12-.87-3.9-3.02-5.15-13.92-7.68-27.69-14.9-41.27-21.56-7.08-4.51-11.43-1.58-14.94,3.66-2.02,2.35-4.04,4.69-6.06,7.04-3.13,3.64-6.16,8.37-9.95,11.29-2.75,2.12-5.9,2.62-9.1,1.35-29.21-11.65-52.37-34.17-68.5-60.76-3.27-5.39-4.47-10.8.75-15.25,5.69-5.37,10.03-10.92,13.06-16.65,1.52-2.76,1.8-5.53.58-8.31l-15.88-41.5c-1.86-4.91-4.72-7.69-8.66-8.24-4.79-.63-9.42-.9-13.83-.68Z"/>
        </g>
      </g>
    </g>
  </g>
</svg>