<?xml version="1.0" encoding="UTF-8"?>
<svg id="Livello_2" xmlns="http://www.w3.org/2000/svg" viewBox="0 0 734.3 734.3">
  <defs>
    <style>
      .cls-1 {
        fill: #fff;
      }

      .cls-2 {
        fill: #191817;
      }
    </style>
  </defs>
  <g id="Layer_1">
    <g id="social_media_logo_and_contact_us_icons_collection_set">
      <g id="youtube">
        <circle id="circle" class="cls-2" cx="367.15" cy="367.15" r="367.15"/>
        <path id="logo" class="cls-1" d="M587.48,255.74c-3.78-14.56-15.84-34.01-40.66-40.92-32.55-8.35-115.38-8.8-179.66-9.68h0c-32.14.44-68.92.77-101.73,2.04-32.81,1.26-61.66,3.46-77.93,7.64-24.83,6.9-36.88,26.35-40.66,40.92-6.43,21-9.61,77.23-9.61,111.41s3.18,90.42,9.61,111.41c3.78,14.57,15.83,34.02,40.66,40.92,32.55,8.36,115.38,8.8,179.66,9.68h0c32.14-.44,68.92-.77,101.73-2.04,32.81-1.26,61.66-3.46,77.93-7.64,24.82-6.9,36.88-26.35,40.66-40.92,6.42-21,9.61-77.23,9.61-111.41s-3.19-90.42-9.61-111.41ZM320.11,435.53v-136.76l120.19,68.38-120.19,68.37Z"/>
      </g>
    </g>
  </g>
</svg>