<svg width="128" height="127" viewBox="0 0 128 127" fill="none" xmlns="http://www.w3.org/2000/svg">
<rect width="128" height="127" rx="22.5908" fill="#F7C8B6"/>
<path d="M64.4344 41.5393L60.4125 37.455C50.9719 27.8678 33.6614 31.1762 27.4126 43.2295C24.4789 48.8987 23.817 57.0839 29.1739 67.5301C34.3345 77.5883 45.0709 89.6361 64.4344 102.759C83.7979 89.6361 94.5286 77.5883 99.6949 67.5301C105.052 57.0783 104.396 48.8987 101.456 43.2295C95.2074 31.1762 77.8969 27.8623 68.4563 37.4495L64.4344 41.5393ZM64.4344 109.437C-21.574 53.2878 37.9526 9.46367 63.4471 32.6448C63.7837 32.9514 64.1128 33.2673 64.4344 33.5924C64.7504 33.2653 65.0797 32.951 65.4216 32.6503C90.9106 9.45259 150.443 53.2822 64.4344 109.437Z" fill="#CD3A19"/>
</svg>
