<?xml version="1.0" encoding="UTF-8"?>
<svg xmlns="http://www.w3.org/2000/svg" version="1.1" viewBox="0 0 292.4 125.6">
  <defs>
    <style>
      .cls-1 {
        fill: #fff;
      }

      .cls-2 {
        isolation: isolate;
      }
    </style>
  </defs>
  <!-- Generator: Adobe Illustrator 28.7.2, SVG Export Plug-In . SVG Version: 1.2.0 Build 154)  -->
  <g>
    <g id="Livello_1">
      <g id="Livello_1-2" data-name="Livello_1">
        <g class="cls-2">
          <path class="cls-1" d="M48.5,34.9v13.2h17.4v3.1h-17.4v14.3h-3.6V31.9h23v3.1h-19.5,0Z"/>
          <path class="cls-1" d="M74.1,34c-.5-.5-.7-1.1-.7-1.7s.2-1.2.7-1.7,1.1-.7,1.8-.7,1.3.2,1.8.7.7,1,.7,1.7-.2,1.3-.7,1.8-1.1.7-1.8.7-1.3-.2-1.8-.7h0ZM74.1,40.2h3.4v25.2h-3.4v-25.2Z"/>
          <path class="cls-1" d="M87.9,64.8c-1.9-.6-3.3-1.3-4.4-2.2l1.5-2.7c1.1.8,2.4,1.5,4,2s3.3.8,5,.8,4-.4,5.1-1.1c1.1-.7,1.7-1.7,1.7-3s-.3-1.7-.9-2.2-1.4-.9-2.3-1.2-2.2-.5-3.7-.8c-2-.4-3.7-.8-4.9-1.2s-2.3-1.1-3.2-2c-.9-1-1.3-2.3-1.3-4s.9-3.8,2.6-5.2c1.8-1.3,4.2-2,7.3-2s3.3.2,4.9.6,3,1,4,1.7l-1.5,2.7c-2.1-1.4-4.6-2.2-7.4-2.2s-3.8.4-4.9,1.2-1.7,1.8-1.7,3,.3,1.7.9,2.3,1.4,1,2.3,1.3,2.2.6,3.8.8c2,.4,3.6.8,4.8,1.2,1.2.4,2.3,1,3.1,2,.9.9,1.3,2.2,1.3,3.8s-.9,4-2.8,5.3c-1.8,1.3-4.4,1.9-7.7,1.9s-4-.3-5.9-.9h.3Z"/>
          <path class="cls-1" d="M114.3,64.1c-2-1.1-3.5-2.6-4.6-4.6s-1.7-4.2-1.7-6.6.6-4.7,1.7-6.6c1.1-2,2.7-3.5,4.6-4.6,2-1.1,4.2-1.6,6.7-1.6s4.1.4,5.8,1.3c1.7.8,3.1,2.1,4.1,3.7l-2.5,1.7c-.8-1.2-1.9-2.2-3.2-2.8-1.3-.6-2.7-.9-4.2-.9s-3.5.4-4.9,1.2c-1.5.8-2.6,2-3.4,3.5s-1.2,3.2-1.2,5.1.4,3.7,1.2,5.2c.8,1.5,2,2.6,3.4,3.5,1.5.8,3.1,1.2,4.9,1.2s2.9-.3,4.2-.9c1.3-.6,2.3-1.5,3.2-2.8l2.5,1.7c-1,1.6-2.4,2.9-4.1,3.7-1.7.8-3.7,1.3-5.8,1.3s-4.7-.5-6.7-1.6h0Z"/>
          <path class="cls-1" d="M140.9,64.1c-2-1.1-3.5-2.6-4.6-4.6s-1.7-4.2-1.7-6.6.6-4.7,1.7-6.6c1.1-2,2.7-3.5,4.6-4.6,2-1.1,4.1-1.6,6.6-1.6s4.6.5,6.6,1.6,3.5,2.6,4.6,4.6,1.7,4.2,1.7,6.6-.6,4.7-1.7,6.6c-1.1,2-2.6,3.5-4.6,4.6s-4.1,1.7-6.6,1.7-4.6-.6-6.6-1.7ZM152.3,61.5c1.4-.8,2.5-2,3.3-3.5s1.2-3.2,1.2-5.1-.4-3.6-1.2-5.1-1.9-2.7-3.3-3.5c-1.4-.8-3-1.2-4.8-1.2s-3.4.4-4.8,1.2c-1.4.8-2.5,2-3.4,3.5-.8,1.5-1.2,3.2-1.2,5.1s.4,3.6,1.2,5.1,1.9,2.7,3.4,3.5c1.4.8,3,1.2,4.8,1.2s3.4-.4,4.8-1.2Z"/>
          <path class="cls-1" d="M165.6,65.5V31.9h12l6.7,29.3h.9v-29.3h6.2v33.6h-12l-6.7-29.3h-.9v29.3h-6.2Z"/>
          <path class="cls-1" d="M208.8,66.1c-2.4,0-4.5-.5-6.3-1.5s-3.2-2.4-4.2-4.3c-1-1.8-1.5-4-1.5-6.5v-.6c0-2.5.5-4.7,1.5-6.5s2.4-3.3,4.2-4.3,3.9-1.5,6.2-1.5,4.4.5,6.1,1.6,3.1,2.5,4,4.3,1.4,4,1.4,6.4v2.1h-17.3c0,1.6.7,3,1.8,4,1.2,1,2.6,1.5,4.2,1.5s2.9-.4,3.7-1.1c.8-.7,1.4-1.6,1.8-2.4l4.9,2.6c-.4.8-1.1,1.7-1.9,2.7-.8,1-2,1.8-3.4,2.5s-3.2,1-5.4,1h.2ZM203,50.8h11.1c-.1-1.4-.7-2.5-1.7-3.3s-2.2-1.2-3.8-1.2-2.9.4-3.9,1.2-1.6,1.9-1.8,3.3h0Z"/>
          <path class="cls-1" d="M222,65.5l8.6-12-8.5-11.8h7l5.4,7.9h.9l5.4-7.9h7l-8.5,11.8,8.6,12h-7.1l-5.4-8h-.9l-5.4,8h-7.1Z"/>
        </g>
        <rect class="cls-1" x="58.6" y="74.6" width="176.8" height="1.1"/>
        <g>
          <path class="cls-1" d="M55.5,93.9c-.4,0-.6,0-.8-.3-.2-.2-.3-.5-.3-.8v-4.2h-1.9v-.9h1.9v-2.2h1v2.2h2v.9h-2v4.1c0,.3,0,.4.4.4h1.4v.9h-1.7Z"/>
          <path class="cls-1" d="M62.8,94.1c-.4,0-.8,0-1.2-.2s-.6-.4-.8-.7c-.2-.3-.3-.6-.3-1.1s0-.8.3-1c.2-.3.5-.5.8-.6s.8-.2,1.2-.2h2.1v-.5c0-.4,0-.8-.4-1-.3-.3-.6-.4-1.2-.4s-.9,0-1.2.4c-.3.2-.5.6-.6,1l-.9-.3c0-.3.3-.7.5-.9.2-.3.5-.5.9-.7s.8-.3,1.3-.3c.8,0,1.4.2,1.9.6.4.4.7,1,.7,1.7v2.8c0,.3,0,.4.4.4h.6v.9h-.9c-.3,0-.5,0-.7-.2s-.3-.4-.3-.6h-.2c0,.2-.2.3-.4.5-.2.2-.4.3-.6.4-.3,0-.6.2-1.1.2v-.2ZM62.9,93.2c.6,0,1.1-.2,1.4-.5s.6-.8.6-1.5h0c0,0-2.1,0-2.1,0-.4,0-.7,0-1,.3-.3.2-.4.4-.4.8s0,.6.4.8c.3.2.6.3,1,.3h0Z"/>
          <path class="cls-1" d="M69.5,93.9l2.5-3.2-2.4-3.1h1.2l1.9,2.4h.2l1.8-2.4h1.2l-2.4,3.1,2.5,3.2h-1.2l-1.9-2.5h-.2l-1.9,2.5h-1.3Z"/>
          <path class="cls-1" d="M86.3,94.1c-.4,0-.8,0-1.2-.2s-.6-.4-.8-.7c-.2-.3-.3-.6-.3-1.1s0-.8.3-1c.2-.3.5-.5.8-.6s.8-.2,1.2-.2h2.1v-.5c0-.4,0-.8-.4-1-.3-.3-.6-.4-1.2-.4s-.9,0-1.2.4c-.3.2-.5.6-.6,1l-.9-.3c0-.3.3-.7.5-.9.2-.3.5-.5.9-.7s.8-.3,1.3-.3c.8,0,1.4.2,1.9.6.4.4.7,1,.7,1.7v2.8c0,.3,0,.4.4.4h.6v.9h-.9c-.3,0-.5,0-.7-.2s-.3-.4-.3-.6h-.2c0,.2-.2.3-.4.5-.2.2-.4.3-.6.4-.3,0-.6.2-1.1.2v-.2ZM86.4,93.2c.6,0,1.1-.2,1.4-.5s.6-.8.6-1.5h0c0,0-2.1,0-2.1,0-.4,0-.7,0-1,.3-.3.2-.4.4-.4.8s0,.6.4.8c.3.2.6.3,1,.3h0Z"/>
          <path class="cls-1" d="M93.5,93.9v-6.2h1v1.1h.2c0-.3.4-.6.7-.8.3-.2.8-.4,1.4-.4s.9,0,1.3.3.7.5.9.9c.2.4.3.9.3,1.4v3.8h-1v-3.7c0-.6-.2-1.1-.5-1.3-.3-.3-.7-.4-1.3-.4s-1.1.2-1.5.6-.6,1-.6,1.7v3.1h-1,0Z"/>
          <path class="cls-1" d="M105.7,94.1c-.5,0-1,0-1.5-.4-.4-.3-.8-.6-1.1-1.1-.3-.5-.4-1.1-.4-1.7v-.2c0-.7,0-1.2.4-1.7s.6-.8,1.1-1.1c.4-.3.9-.4,1.5-.4s.8,0,1.1.2.5.3.7.4.3.4.4.6h.2v-3.7h1v8.9h-1v-1h-.2c-.2.3-.4.6-.8.8-.4.2-.9.4-1.5.4h.1ZM106,93.2c.6,0,1.2-.2,1.6-.6s.6-1,.6-1.7h0c0-.9-.2-1.4-.6-1.8s-.9-.6-1.6-.6-1.2.2-1.6.6-.6,1-.6,1.7h0c0,.9.2,1.4.6,1.8s.9.6,1.6.6Z"/>
          <path class="cls-1" d="M120.1,94.1c-.4,0-.8,0-1.2-.2s-.6-.4-.8-.7c-.2-.3-.3-.6-.3-1.1s0-.8.3-1c.2-.3.5-.5.8-.6s.8-.2,1.2-.2h2.1v-.5c0-.4,0-.8-.4-1-.3-.3-.6-.4-1.2-.4s-.9,0-1.2.4c-.3.2-.5.6-.6,1l-.9-.3c0-.3.3-.7.5-.9.2-.3.5-.5.9-.7s.8-.3,1.3-.3c.8,0,1.4.2,1.9.6.4.4.7,1,.7,1.7v2.8c0,.3,0,.4.4.4h.6v.9h-.9c-.3,0-.5,0-.7-.2s-.3-.4-.3-.6h-.2c0,.2-.2.3-.4.5-.2.2-.4.3-.6.4-.3,0-.6.2-1.1.2v-.2ZM120.2,93.2c.6,0,1.1-.2,1.4-.5s.6-.8.6-1.5h0c0,0-2.1,0-2.1,0-.4,0-.7,0-1,.3-.3.2-.4.4-.4.8s0,.6.4.8c.3.2.6.3,1,.3h0Z"/>
          <path class="cls-1" d="M130,94.1c-.6,0-1.1,0-1.6-.4s-.9-.6-1.1-1.1c-.3-.5-.4-1.1-.4-1.7h0c0-.8,0-1.4.4-1.9s.7-.8,1.1-1.1c.5-.3,1-.4,1.6-.4s1.1,0,1.5.3.8.5,1,.9.4.8.5,1.2l-1,.2c0-.3-.1-.6-.3-.8-.2-.3-.4-.5-.7-.6-.3-.2-.6-.2-1-.2s-.8,0-1.1.3c-.3.2-.6.5-.8.8s-.3.8-.3,1.2h0c0,.6,0,1,.3,1.4.2.3.4.6.8.8.3.2.7.3,1.1.3.6,0,1.1-.2,1.4-.5.3-.3.5-.7.6-1.2l1,.2c0,.4-.3.8-.5,1.2-.2.4-.6.7-1,.9-.4.2-.9.3-1.5.3h0Z"/>
          <path class="cls-1" d="M139.4,94.1c-.6,0-1.1,0-1.6-.4s-.9-.6-1.1-1.1c-.3-.5-.4-1.1-.4-1.7h0c0-.8.1-1.4.4-1.9s.7-.8,1.1-1.1c.5-.3,1-.4,1.6-.4s1.1,0,1.5.3.8.5,1,.9.4.8.5,1.2l-1,.2c0-.3-.1-.6-.3-.8-.2-.3-.4-.5-.7-.6-.3-.2-.6-.2-1-.2s-.8,0-1.1.3c-.3.2-.6.5-.8.8s-.3.8-.3,1.2h0c0,.6,0,1,.3,1.4.2.3.4.6.8.8.3.2.7.3,1.1.3.6,0,1.1-.2,1.4-.5.3-.3.5-.7.6-1.2l1,.2c0,.4-.3.8-.5,1.2-.2.4-.6.7-1,.9-.4.2-.9.3-1.5.3h0Z"/>
          <path class="cls-1" d="M148.8,94.1c-.6,0-1.2,0-1.7-.4s-.9-.6-1.1-1.1c-.3-.5-.4-1-.4-1.7v-.2c0-.6.1-1.2.4-1.7.3-.5.6-.9,1.1-1.1.5-.3,1-.4,1.7-.4s1.2,0,1.7.4.9.6,1.1,1.1c.3.5.4,1,.4,1.7v.2c0,.7-.1,1.2-.4,1.7-.3.5-.6.8-1.1,1.1s-1,.4-1.7.4ZM148.8,93.2c.7,0,1.2-.2,1.6-.6.4-.4.6-1,.6-1.7h0c0-.8-.2-1.4-.6-1.8-.4-.4-.9-.6-1.6-.6s-1.2.2-1.6.6c-.4.4-.6,1-.6,1.7h0c0,.8.2,1.4.6,1.8.4.4.9.6,1.6.6Z"/>
          <path class="cls-1" d="M157.9,94c-.4,0-.9,0-1.2-.3-.4-.2-.7-.5-.9-.9s-.3-.9-.3-1.4v-3.8h1v3.7c0,.6.2,1.1.5,1.3.3.3.7.4,1.3.4s1.1-.2,1.5-.6.6-1,.6-1.7v-3.1h1v6.2h-1v-1.1h-.2c-.1.3-.4.6-.7.8-.3.2-.8.4-1.4.4h-.2Z"/>
          <path class="cls-1" d="M165.1,93.9v-6.2h1v1.1h.2c.1-.3.4-.6.7-.8.3-.2.8-.4,1.4-.4s.9,0,1.3.3c.4.2.7.5.9.9s.3.9.3,1.4v3.8h-1v-3.7c0-.6-.2-1.1-.5-1.3-.3-.3-.7-.4-1.3-.4s-1.1.2-1.5.6-.6,1-.6,1.7v3.1h-1,.1Z"/>
          <path class="cls-1" d="M176.9,93.9c-.4,0-.6,0-.8-.3-.2-.2-.3-.5-.3-.8v-4.2h-1.9v-.9h1.9v-2.2h1v2.2h2v.9h-2v4.1c0,.3.1.4.4.4h1.4v.9h-1.7,0Z"/>
          <path class="cls-1" d="M182.7,86.8c-.2,0-.4,0-.6-.2s-.2-.3-.2-.5,0-.4.2-.6c.1,0,.3-.2.6-.2s.4,0,.5.2c.1,0,.2.3.2.6s0,.4-.2.5-.3.2-.5.2ZM182.2,93.9v-6.2h1v6.2h-1Z"/>
          <path class="cls-1" d="M187.1,93.9v-6.2h1v1.1h.2c.1-.3.4-.6.7-.8.3-.2.8-.4,1.4-.4s.9,0,1.3.3c.4.2.7.5.9.9s.3.9.3,1.4v3.8h-1v-3.7c0-.6-.2-1.1-.5-1.3-.3-.3-.7-.4-1.3-.4s-1.1.2-1.5.6-.6,1-.6,1.7v3.1h-1,.1Z"/>
          <path class="cls-1" d="M196.4,90.9v-.2c0-.7.1-1.2.4-1.7.3-.5.6-.8,1.1-1.1s.9-.4,1.5-.4,1.2,0,1.5.4c.4.2.6.5.8.8h.2v-1h1v7.7c0,.3,0,.6-.3.8s-.5.3-.8.3h-4.2v-.9h4c.3,0,.4,0,.4-.4v-2.4h-.2c-.1.2-.2.4-.4.5-.2.2-.4.3-.7.4s-.7.2-1.1.2-1,0-1.5-.4c-.4-.3-.8-.6-1.1-1.1s-.4-1-.4-1.7l-.2.2ZM199.6,93.1c.6,0,1.2-.2,1.6-.6.4-.4.6-1,.6-1.7h0c0-.8-.2-1.4-.6-1.8s-.9-.6-1.6-.6-1.2.2-1.6.6-.6,1-.6,1.7h0c0,.8.2,1.4.6,1.8.4.4.9.6,1.6.6Z"/>
          <path class="cls-1" d="M211.7,93.9v-8.9h5.4v1h-4.3v3h4v1h-4v4h-1.1,0Z"/>
          <path class="cls-1" d="M221,86.8c-.2,0-.4,0-.6-.2s-.2-.3-.2-.5,0-.4.2-.6c.1,0,.3-.2.6-.2s.4,0,.5.2c.1,0,.2.3.2.6s0,.4-.2.5-.3.2-.5.2ZM220.4,93.9v-6.2h1v6.2h-1Z"/>
          <path class="cls-1" d="M225.4,93.9v-6.2h1v.8h.2c.1-.3.3-.5.5-.6s.5-.2.9-.2h.7v.9h-.8c-.4,0-.8,0-1.1.4s-.4.6-.4,1.2v3.8h-1,0Z"/>
          <path class="cls-1" d="M232,93.9v-6.2h1v.8h.2c.1-.2.3-.4.6-.6s.7-.3,1.1-.3.9,0,1.2.3.5.5.7.8h.2c.1-.3.4-.6.7-.8.3-.2.7-.3,1.2-.3s.8,0,1.1.3c.3.2.6.4.7.7.2.3.3.7.3,1.1v4.2h-1v-4.1c0-.4-.1-.7-.4-1-.2-.2-.6-.4-1-.4s-.8,0-1.1.4-.4.7-.4,1.3v3.7h-1v-4.1c0-.4-.1-.7-.4-1s-.6-.4-1-.4-.8,0-1.1.4-.4.7-.4,1.3v3.7h-1l-.2.2Z"/>
        </g>
      </g>
    </g>
  </g>
</svg>