<?xml version="1.0" encoding="UTF-8"?>
<svg xmlns="http://www.w3.org/2000/svg" version="1.1" viewBox="0 0 292.4 125.6">
  <defs>
    <style>
      .cls-1 {
        fill: #fff;
      }

      .cls-2 {
        isolation: isolate;
      }
    </style>
  </defs>
  <!-- Generator: Adobe Illustrator 28.7.2, SVG Export Plug-In . SVG Version: 1.2.0 Build 154)  -->
  <g>
    <g id="Livello_1">
      <g class="cls-2">
        <path class="cls-1" d="M50.4,46.1v13.2h17.4v3.1h-17.4v14.3h-3.6v-33.6h23v3.1h-19.5Z"/>
        <path class="cls-1" d="M75.9,45.1c-.5-.5-.7-1.1-.7-1.7s.2-1.2.7-1.7c.5-.5,1.1-.7,1.8-.7s1.3.2,1.8.7.7,1,.7,1.7-.2,1.3-.7,1.8c-.5.5-1.1.7-1.8.7s-1.3-.2-1.8-.7ZM76,51.4h3.4v25.2h-3.4v-25.2Z"/>
        <path class="cls-1" d="M89.8,76c-1.9-.6-3.3-1.3-4.4-2.2l1.5-2.7c1.1.8,2.4,1.5,4,2,1.6.5,3.3.8,5,.8s4-.4,5.1-1.1c1.1-.7,1.7-1.7,1.7-3s-.3-1.7-.9-2.2c-.6-.5-1.4-.9-2.3-1.2-.9-.3-2.2-.5-3.7-.8-2-.4-3.7-.8-4.9-1.2s-2.3-1.1-3.2-2c-.9-1-1.3-2.3-1.3-4s.9-3.8,2.6-5.2c1.8-1.3,4.2-2,7.3-2s3.3.2,4.9.6,3,1,4,1.7l-1.5,2.7c-2.1-1.4-4.6-2.2-7.4-2.2s-3.8.4-4.9,1.2c-1.1.8-1.7,1.8-1.7,3s.3,1.7.9,2.3,1.4,1,2.3,1.3c.9.3,2.2.6,3.8.8,2,.4,3.6.8,4.8,1.2,1.2.4,2.3,1,3.1,2,.9.9,1.3,2.2,1.3,3.8s-.9,4-2.8,5.3c-1.8,1.3-4.4,1.9-7.7,1.9s-4-.3-5.9-.9Z"/>
        <path class="cls-1" d="M116.1,75.2c-2-1.1-3.5-2.6-4.6-4.6-1.1-2-1.7-4.2-1.7-6.6s.6-4.7,1.7-6.6c1.1-2,2.7-3.5,4.6-4.6,2-1.1,4.2-1.6,6.7-1.6s4.1.4,5.8,1.3c1.7.8,3.1,2.1,4.1,3.7l-2.5,1.7c-.8-1.2-1.9-2.2-3.2-2.8-1.3-.6-2.7-.9-4.2-.9s-3.5.4-4.9,1.2c-1.5.8-2.6,2-3.4,3.5-.8,1.5-1.2,3.2-1.2,5.1s.4,3.7,1.2,5.2c.8,1.5,2,2.6,3.4,3.5,1.5.8,3.1,1.2,4.9,1.2s2.9-.3,4.2-.9c1.3-.6,2.3-1.5,3.2-2.8l2.5,1.7c-1,1.6-2.4,2.9-4.1,3.7-1.7.8-3.7,1.3-5.8,1.3s-4.7-.5-6.7-1.6Z"/>
        <path class="cls-1" d="M142.7,75.2c-2-1.1-3.5-2.6-4.6-4.6-1.1-2-1.7-4.2-1.7-6.6s.6-4.7,1.7-6.6c1.1-2,2.7-3.5,4.6-4.6,2-1.1,4.1-1.6,6.6-1.6s4.6.5,6.6,1.6c2,1.1,3.5,2.6,4.6,4.6,1.1,2,1.7,4.2,1.7,6.6s-.6,4.7-1.7,6.6c-1.1,2-2.6,3.5-4.6,4.6-2,1.1-4.1,1.7-6.6,1.7s-4.6-.6-6.6-1.7ZM154.1,72.6c1.4-.8,2.5-2,3.3-3.5.8-1.5,1.2-3.2,1.2-5.1s-.4-3.6-1.2-5.1c-.8-1.5-1.9-2.7-3.3-3.5-1.4-.8-3-1.2-4.8-1.2s-3.4.4-4.8,1.2c-1.4.8-2.5,2-3.4,3.5-.8,1.5-1.2,3.2-1.2,5.1s.4,3.6,1.2,5.1c.8,1.5,1.9,2.7,3.4,3.5,1.4.8,3,1.2,4.8,1.2s3.4-.4,4.8-1.2Z"/>
        <path class="cls-1" d="M167.5,76.6v-33.6h12l6.7,29.3h.9v-29.3h6.2v33.6h-12l-6.7-29.3h-.9v29.3h-6.2Z"/>
        <path class="cls-1" d="M210.7,77.3c-2.4,0-4.5-.5-6.3-1.5-1.8-1-3.2-2.4-4.2-4.3-1-1.8-1.5-4-1.5-6.5v-.6c0-2.5.5-4.7,1.5-6.5,1-1.8,2.4-3.3,4.2-4.3,1.8-1,3.9-1.5,6.2-1.5s4.4.5,6.1,1.6,3.1,2.5,4,4.3,1.4,4,1.4,6.4v2.1h-17.3c0,1.6.7,3,1.8,4,1.2,1,2.6,1.5,4.2,1.5s2.9-.4,3.7-1.1c.8-.7,1.4-1.6,1.8-2.4l4.9,2.6c-.4.8-1.1,1.7-1.9,2.7-.8,1-2,1.8-3.4,2.5-1.4.7-3.2,1-5.4,1ZM204.9,62h11.1c-.1-1.4-.7-2.5-1.7-3.3-1-.8-2.2-1.2-3.8-1.2s-2.9.4-3.9,1.2c-1,.8-1.6,1.9-1.8,3.3Z"/>
        <path class="cls-1" d="M223.9,76.6l8.6-12-8.5-11.8h7l5.4,7.9h.9l5.4-7.9h7l-8.5,11.8,8.6,12h-7.1l-5.4-8h-.9l-5.4,8h-7.1Z"/>
      </g>
    </g>
  </g>
</svg>