<svg width="318" height="443" viewBox="0 0 318 443" fill="none" xmlns="http://www.w3.org/2000/svg">
<path d="M229.284 4.54515C232.248 32.1327 231.03 60.0497 225.994 87.3248C220.989 114.456 212.068 140.839 199.639 165.465C193.502 177.632 186.524 189.452 178.566 200.509C170.898 211.16 162.102 221.119 151.153 228.488C141.156 235.217 129.464 239.149 117.348 238.932C105.869 238.733 94.199 234.76 86.1175 226.365C71.0261 210.692 74.7031 185.908 87.5967 170.155C94.4368 161.799 104.027 156.29 114.667 154.467C126.531 152.436 138.536 154.564 149.448 159.462C173.354 170.189 187.654 193.413 193.26 218.278C198.96 243.552 197.287 270.484 191.789 295.632C186.354 320.491 176.454 344.371 163.385 366.169C150.262 388.053 133.845 408.03 115.051 425.276C110.441 429.512 105.671 433.574 100.773 437.474C99.1953 438.734 96.9836 438.949 95.4724 437.393C94.1668 436.054 93.9585 433.356 95.5538 432.092C114.477 417.004 131.421 399.396 145.525 379.712C159.552 360.129 170.896 338.59 178.491 315.716C186.083 292.87 190.021 268.703 189.095 244.602C188.171 220.592 181.636 194.75 163.559 177.759C148.474 163.586 123.746 155.255 104.388 165.746C88.8973 174.14 79.4843 194.64 85.5176 211.608C92.7009 231.827 119.274 235.084 136.735 227.811C159.678 218.262 174.587 194.988 186.413 174.272C199.407 151.512 209.091 126.931 215.315 101.479C221.541 76.0358 224.218 49.7698 223.208 23.5915C222.962 17.1851 222.48 10.7871 221.801 4.40701C221.584 2.38797 223.757 0.68931 225.602 0.713628C227.835 0.749652 229.079 2.49605 229.296 4.51507L229.284 4.54515Z" fill="#CD3A19"/>
<path d="M105.123 425.497C108.679 425.612 112.233 425.473 115.76 425.06C117.583 424.852 119.398 424.563 121.201 424.211C121.565 424.143 121.925 424.067 122.286 423.991C122.523 423.939 122.771 423.892 123.007 423.839C122.621 423.924 122.658 423.921 123.1 423.807C123.934 423.598 124.762 423.4 125.587 423.166C129.008 422.224 132.37 421.028 135.613 419.591C139.086 418.056 141.194 416.912 144.451 414.828C145.613 417.015 146.777 419.21 147.939 421.396C131.664 427.02 115.389 432.644 99.1145 438.268C96.0103 439.338 93.0529 436.171 94.4105 433.162C102.361 415.504 110.309 397.837 118.252 380.182C120.503 375.18 122.755 370.178 125.006 365.177C125.808 363.385 128.225 362.456 129.995 363.388C131.765 364.32 132.647 366.461 131.784 368.377C123.833 386.035 115.885 403.702 107.943 421.357C105.691 426.359 103.44 431.361 101.188 436.363C99.6185 434.664 98.0541 432.955 96.4843 431.256C112.759 425.633 129.034 420.009 145.308 414.385C147.09 413.776 149.022 414.493 149.901 416.154C150.739 417.725 150.366 419.945 148.787 420.956C136.055 429.112 120.919 433.461 105.771 432.969C103.818 432.91 101.803 431.759 101.706 429.568C101.627 427.737 103.01 425.436 105.107 425.503L105.123 425.497Z" fill="#CD3A19"/>
</svg>
