<svg width="1440" height="1099" viewBox="0 0 1440 1099" fill="none" xmlns="http://www.w3.org/2000/svg">
<path d="M-30.2158 907.853C-20.165 880.8 -5.72296 853.594 18.1213 836.23C42.3035 818.619 77.2218 811.283 103.289 829.26C125.672 844.696 138.07 877.492 118.642 900.181C102.618 918.895 69.6026 923.951 55.7833 899.86C44.4413 880.085 53.6242 853.425 68.6403 838.292C88.9094 817.865 121.78 817.827 148.314 821.537C180.71 826.067 212.764 834.716 244.695 841.718C277.854 848.991 311.016 856.264 344.175 863.537C374.551 870.199 405.2 878.782 436.164 882.214C460.998 884.967 487.711 882.827 507.712 866.385C523.645 853.287 535.154 831.823 528.679 810.998C523.589 794.628 508.375 784.532 492.003 781.76C473.636 778.651 454.287 784.138 441.67 798.122C426.767 814.64 422.45 838.137 425.655 859.656C433.122 909.781 479.921 942.987 525.795 955.634C556.397 964.071 588.468 965.206 620.027 964.417C649.418 963.68 678.8 961.66 708.037 958.599C768.021 952.316 827.51 941.37 885.812 925.941C942.871 910.842 998.797 891.455 1052.94 867.961C1080.8 855.871 1108.19 842.69 1135.02 828.454C1159.03 815.708 1183.36 802.623 1204.58 785.481C1238.81 757.837 1264.33 712.634 1245.17 668.583C1226.26 625.122 1170.5 624.381 1137.67 652.36C1093.96 689.602 1091.11 756.27 1093.17 809.079C1095.56 870.441 1106.07 932.802 1089.97 993.239C1082.83 1020 1070.2 1046.47 1050.08 1065.94C1033.08 1082.4 1010.56 1093.19 987.222 1096.86C964.281 1100.46 939.594 1096.93 920.496 1083.06C897.87 1066.62 887.557 1038.59 887.743 1011.32C888.159 950.493 936.287 902.21 978.408 864.088C1022.52 824.16 1071.36 790.009 1118.53 753.888C1206.68 686.391 1295.7 602.898 1319.08 489.489C1338.83 393.704 1303.47 282.549 1206.01 245.507C1163.47 229.341 1113.64 229.281 1073.72 252.721C1037.34 274.078 1014.74 312.748 1007.86 353.735C1000.78 395.894 1009.88 440.825 1035.94 475.112C1063.73 511.67 1106.77 534.336 1151.7 541.539C1198.7 549.072 1246.51 539.267 1286.87 514.112C1328.02 488.465 1359.91 449.239 1379.28 405.019C1419.21 313.888 1400.32 206.394 1343.09 126.928C1280.3 39.736 1174.53 -4.45828 1068.38 0.35531C1016.34 2.71569 963.652 16.2312 918.482 42.5499C877.152 66.63 839.522 102.58 822.854 148.295C783.935 255.033 882.941 346.116 968.515 390.28C1075.79 445.642 1199.35 455.235 1317.96 447.288C1381.19 443.052 1443.98 434.14 1506.69 425.223C1507.2 425.15 1507.04 424.368 1506.53 424.441C1382.04 442.142 1254.76 460.317 1129.38 440.411C1072.16 431.327 1015.77 414.499 964.485 387.276C916.483 361.797 870.487 326.952 841.265 280.406C812.909 235.241 806.333 181.24 830.432 132.74C853.227 86.8644 896.122 52.4388 941.953 31.2122C1040.82 -14.58 1164.08 -8.96445 1257.22 48.0042C1343.72 100.913 1399.86 199.875 1399.91 301.394C1399.96 401.271 1338.55 504.31 1240.05 534.852C1149.84 562.825 1035.76 518.562 1011.27 421.731C1000.36 378.58 1007.45 330.215 1032.38 293.065C1059.37 252.841 1105.7 232.563 1153.56 235.096C1202.62 237.694 1250.1 262.059 1280.36 300.787C1312.99 342.558 1326.1 396.804 1323.43 449.156C1317.6 563.732 1237.84 656.306 1153.04 725.659C1107.99 762.503 1059.97 795.521 1014.71 832.101C992.337 850.189 970.639 869.169 950.513 889.75C931.621 909.072 913.745 930.005 901.537 954.281C881.645 993.834 878.973 1048.99 915.583 1080.2C946.956 1106.94 994.528 1102.59 1028.4 1083.15C1070.42 1059.03 1089.89 1010.82 1096.49 964.902C1105.12 904.807 1093.03 844.594 1093.53 784.372C1093.97 731.202 1105.38 660.349 1162.34 638.773C1187 629.432 1216.67 632.41 1234.64 653.197C1250.27 671.261 1253.47 697.455 1248.5 720.152C1236.59 774.481 1179.54 803.922 1134.66 827.74C1082.95 855.182 1029.15 878.711 973.904 898.061C862.541 937.061 745.243 959.452 627.279 963.407C568.443 965.38 503.269 960.862 458.396 917.962C439.041 899.458 425.899 874.763 425.454 847.642C425.054 823.156 435.846 796.233 459.675 786.131C479.25 777.833 505.585 780.888 520.14 797.367C538.609 818.276 527.557 848.04 508.809 864.413C485.936 884.39 454.13 884.479 425.687 879.98C393.496 874.888 361.632 866.554 329.808 859.575C297.623 852.517 265.437 845.457 233.252 838.399C204.323 832.054 175.275 824.221 145.868 820.405C122.824 817.414 96.3657 817.618 76.2717 830.983C61.6012 840.741 51.8123 858.09 50.2745 875.562C48.8782 891.429 55.5336 907.714 70.7781 914.389C87.5512 921.733 107.804 914.079 119.232 900.772C132.118 885.768 131.627 864.632 121.891 848.075C110.793 829.199 90.5158 818.099 68.7301 818.035C17.2031 817.881 -14.8617 864.232 -30.9726 907.597C-31.1522 908.079 -30.397 908.341 -30.2174 907.86L-30.2158 907.853Z" fill="#232221"/>
</svg>
