<svg width="523" height="468" viewBox="0 0 523 468" fill="none" xmlns="http://www.w3.org/2000/svg">
<path d="M518.464 12.5163C518.825 12.9821 525.144 8.75549 532.584 3.08248C540.024 -2.59053 545.766 -7.56727 545.406 -8.02818C545.045 -8.49398 538.726 -4.26742 531.286 1.40559C523.846 7.0786 518.104 12.0554 518.464 12.5163Z" fill="white"/>
<path d="M484.784 8.123C485.145 8.5888 491.464 4.36224 498.904 -1.31077C506.344 -6.98378 512.086 -11.9606 511.725 -12.4215C511.365 -12.8873 505.046 -8.66067 497.606 -2.98766C490.165 2.68535 484.424 7.6621 484.784 8.123Z" fill="white"/>
<path d="M499.413 27.0445C499.773 27.5103 506.092 23.2837 513.532 17.6107C520.972 11.9377 526.714 6.96092 526.354 6.50002C525.993 6.03422 519.674 10.2608 512.234 15.9338C504.794 21.6068 499.052 26.5836 499.413 27.0445Z" fill="white"/>
<path d="M514.04 45.966C514.401 46.4318 520.72 42.2052 528.16 36.5322C535.6 30.8592 541.342 25.8824 540.982 25.4215C540.621 24.9557 534.302 29.1823 526.862 34.8553C519.422 40.5283 513.68 45.5051 514.04 45.966Z" fill="white"/>
<path d="M451.109 3.72975C451.469 4.19556 457.789 -0.0310049 465.229 -5.70402C472.669 -11.377 478.41 -16.3538 478.05 -16.8147C477.69 -17.2805 471.37 -13.0539 463.93 -7.38091C456.49 -1.70789 450.748 3.26885 451.109 3.72975Z" fill="white"/>
<path d="M465.737 22.6512C466.098 23.117 472.417 18.8904 479.857 13.2174C487.297 7.54442 493.039 2.56764 492.678 2.10674C492.318 1.64094 485.999 5.8675 478.559 11.5405C471.119 17.2135 465.377 22.1903 465.737 22.6512Z" fill="white"/>
<path d="M480.366 41.5726C480.726 42.0385 487.045 37.8119 494.486 32.1389C501.926 26.4659 507.667 21.4891 507.307 21.0282C506.947 20.5624 500.627 24.789 493.187 30.462C485.747 36.135 480.005 41.1117 480.366 41.5726Z" fill="white"/>
<path d="M494.994 60.4942C495.354 60.96 501.673 56.7334 509.113 51.0604C516.553 45.3874 522.295 40.4106 521.935 39.9497C521.574 39.4839 515.255 43.7105 507.815 49.3835C500.375 55.0565 494.633 60.0333 494.994 60.4942Z" fill="white"/>
<path d="M509.622 79.4157C509.982 79.8815 516.302 75.6549 523.742 69.9819C531.182 64.3089 536.924 59.3322 536.563 58.8713C536.203 58.4055 529.883 62.632 522.443 68.305C515.003 73.978 509.262 78.9548 509.622 79.4157Z" fill="white"/>
<path d="M432.057 18.2579C432.417 18.7238 438.737 14.4972 446.177 8.82418C453.617 3.15117 459.359 -1.82557 458.998 -2.28648C458.638 -2.75228 452.319 1.47428 444.878 7.14729C437.438 12.8203 431.697 17.797 432.057 18.2579Z" fill="white"/>
<path d="M446.685 37.1794C447.045 37.6452 453.365 33.4186 460.805 27.7456C468.245 22.0726 473.987 17.0958 473.626 16.6349C473.266 16.1691 466.946 20.3957 459.506 26.0687C452.066 31.7417 446.325 36.7185 446.685 37.1794Z" fill="white"/>
<path d="M461.313 56.1009C461.674 56.5667 467.993 52.3401 475.433 46.6671C482.873 40.9941 488.615 36.0174 488.255 35.5564C487.894 35.0906 481.575 39.3172 474.135 44.9902C466.695 50.6632 460.953 55.64 461.313 56.1009Z" fill="white"/>
<path d="M475.942 75.0224C476.302 75.4882 482.622 71.2616 490.062 65.5886C497.502 59.9156 503.243 54.9388 502.883 54.4779C502.523 54.017 496.203 58.2387 488.763 63.9117C481.323 69.5847 475.581 74.5615 475.942 75.0224Z" fill="white"/>
<path d="M490.57 93.9439C490.931 94.4097 497.25 90.1831 504.69 84.5101C512.13 78.8371 517.872 73.8603 517.511 73.3994C517.151 72.9336 510.832 77.1602 503.392 82.8332C495.952 88.5062 490.21 93.483 490.57 93.9439Z" fill="white"/>
<path d="M505.199 112.865C505.559 113.331 511.878 109.105 519.319 103.432C526.759 97.7586 532.5 92.7818 532.14 92.3209C531.78 91.8551 525.46 96.0817 518.02 101.755C510.58 107.428 504.838 112.404 505.199 112.865Z" fill="white"/>
<path d="M519.827 131.787C520.187 132.253 526.506 128.026 533.946 122.353C541.386 116.68 547.128 111.703 546.768 111.242C546.407 110.777 540.088 115.003 532.648 120.676C525.208 126.349 519.466 131.326 519.827 131.787Z" fill="white"/>
<path d="M398.376 13.8647C398.737 14.3305 405.056 10.1039 412.496 4.43087C419.936 -1.24214 425.678 -6.21889 425.318 -6.67979C424.957 -7.14559 418.638 -2.91903 411.198 2.75398C403.758 8.42699 398.016 13.4038 398.376 13.8647Z" fill="white"/>
<path d="M413.005 32.7861C413.365 33.252 419.685 29.0254 427.125 23.3524C434.565 17.6794 440.306 12.7026 439.946 12.2417C439.586 11.7759 433.266 16.0025 425.826 21.6755C418.386 27.3485 412.644 32.3252 413.005 32.7861Z" fill="white"/>
<path d="M427.633 51.7076C427.994 52.1734 434.313 47.9468 441.753 42.2738C449.193 36.6008 454.935 31.624 454.574 31.1631C454.214 30.6973 447.895 34.9239 440.455 40.5969C433.015 46.2699 427.273 51.2467 427.633 51.7076Z" fill="white"/>
<path d="M442.262 70.6291C442.622 71.0949 448.941 66.8684 456.381 61.1954C463.822 55.5224 469.563 50.5456 469.203 50.0847C468.843 49.6189 462.523 53.8455 455.083 59.5185C447.643 65.1915 441.901 70.1682 442.262 70.6291Z" fill="white"/>
<path d="M456.89 89.5506C457.251 90.0164 463.57 85.7899 471.01 80.1169C478.45 74.4439 484.192 69.4671 483.831 69.0062C483.471 68.5404 477.152 72.7669 469.711 78.44C462.271 84.113 456.53 89.0897 456.89 89.5506Z" fill="white"/>
<path d="M471.519 108.472C471.879 108.938 478.198 104.711 485.638 99.0383C493.078 93.3652 498.82 88.3885 498.46 87.9276C498.099 87.4618 491.78 91.6884 484.34 97.3614C476.9 103.034 471.158 108.011 471.519 108.472Z" fill="white"/>
<path d="M486.147 127.394C486.507 127.859 492.827 123.633 500.267 117.96C507.707 112.287 513.449 107.31 513.088 106.849C512.728 106.388 506.408 110.61 498.968 116.283C491.528 121.956 485.787 126.933 486.147 127.394Z" fill="white"/>
<path d="M500.775 146.315C501.135 146.781 507.455 142.554 514.895 136.881C522.335 131.208 528.076 126.231 527.716 125.771C527.356 125.305 521.036 129.531 513.596 135.204C506.156 140.877 500.414 145.854 500.775 146.315Z" fill="white"/>
<path d="M515.403 165.237C515.764 165.702 522.083 161.476 529.523 155.803C536.963 150.13 542.705 145.153 542.345 144.692C541.984 144.226 535.665 148.453 528.225 154.126C520.785 159.799 515.043 164.776 515.403 165.237Z" fill="white"/>
<path d="M364.696 9.47633C365.057 9.94214 371.376 5.71558 378.816 0.0425637C386.256 -5.63045 391.998 -10.6072 391.637 -11.0681C391.277 -11.5339 384.958 -7.30737 377.518 -1.63436C370.078 4.03866 364.336 9.01543 364.696 9.47633Z" fill="white"/>
<path d="M379.325 28.3929C379.685 28.8587 386.004 24.6321 393.444 18.9591C400.885 13.2861 406.626 8.30931 406.266 7.84841C405.905 7.38261 399.586 11.6092 392.146 17.2822C384.706 22.9552 378.964 27.932 379.325 28.3929Z" fill="white"/>
<path d="M393.953 47.3143C394.313 47.7801 400.633 43.5536 408.073 37.8805C415.513 32.2075 421.255 27.2308 420.894 26.7699C420.534 26.3041 414.215 30.5306 406.774 36.2037C399.334 41.8767 393.593 46.8534 393.953 47.3143Z" fill="white"/>
<path d="M408.582 66.2359C408.942 66.7017 415.261 62.4751 422.701 56.8021C430.141 51.1291 435.883 46.1523 435.523 45.6914C435.162 45.2256 428.843 49.4522 421.403 55.1252C413.963 60.7982 408.221 65.775 408.582 66.2359Z" fill="white"/>
<path d="M423.21 85.1574C423.57 85.6232 429.89 81.3966 437.33 75.7236C444.77 70.0506 450.512 65.0738 450.151 64.6129C449.791 64.1471 443.471 68.3737 436.031 74.0467C428.591 79.7197 422.85 84.6965 423.21 85.1574Z" fill="white"/>
<path d="M437.838 104.079C438.199 104.545 444.518 100.318 451.958 94.6451C459.398 88.9721 465.14 83.9953 464.78 83.5344C464.419 83.0686 458.1 87.2951 450.66 92.9682C443.22 98.6412 437.478 103.618 437.838 104.079Z" fill="white"/>
<path d="M452.466 123C452.827 123.466 459.146 119.24 466.586 113.566C474.026 107.893 479.768 102.917 479.407 102.456C479.047 101.99 472.728 106.217 465.288 111.89C457.848 117.563 452.106 122.539 452.466 123Z" fill="white"/>
<path d="M467.095 141.922C467.455 142.388 473.774 138.161 481.215 132.488C488.655 126.815 494.396 121.838 494.036 121.377C493.676 120.912 487.356 125.138 479.916 130.811C472.476 136.484 466.734 141.461 467.095 141.922Z" fill="white"/>
<path d="M481.723 160.843C482.084 161.309 488.403 157.082 495.843 151.409C503.283 145.736 509.025 140.76 508.664 140.299C508.304 139.833 501.985 144.06 494.545 149.733C487.104 155.406 481.363 160.382 481.723 160.843Z" fill="white"/>
<path d="M496.352 179.765C496.712 180.231 503.031 176.004 510.471 170.331C517.911 164.658 523.653 159.681 523.293 159.22C522.932 158.754 516.613 162.981 509.173 168.654C501.733 174.327 495.991 179.304 496.352 179.765Z" fill="white"/>
<path d="M510.98 198.686C511.34 199.152 517.66 194.925 525.1 189.252C532.54 183.579 538.282 178.603 537.921 178.142C537.561 177.676 531.241 181.902 523.801 187.575C516.361 193.248 510.62 198.225 510.98 198.686Z" fill="white"/>
<path d="M331.016 5.08302C331.376 5.54883 337.696 1.32227 345.136 -4.35075C352.576 -10.0238 358.318 -15.0005 357.957 -15.4614C357.597 -15.9272 351.278 -11.7006 343.837 -6.02763C336.397 -0.354622 330.656 4.62212 331.016 5.08302Z" fill="white"/>
<path d="M345.644 24.0045C346.005 24.4703 352.324 20.2438 359.764 14.5708C367.204 8.89775 372.946 3.92098 372.586 3.46008C372.225 2.99427 365.906 7.22083 358.466 12.8938C351.026 18.5669 345.284 23.5436 345.644 24.0045Z" fill="white"/>
<path d="M360.273 42.9211C360.633 43.3869 366.953 39.1603 374.393 33.4873C381.833 27.8143 387.575 22.8375 387.214 22.3766C386.854 21.9108 380.534 26.1374 373.094 31.8104C365.654 37.4834 359.913 42.4602 360.273 42.9211Z" fill="white"/>
<path d="M374.901 61.8426C375.262 62.3084 381.581 58.0818 389.021 52.4088C396.461 46.7358 402.203 41.759 401.843 41.2981C401.482 40.8323 395.163 45.0589 387.723 50.7319C380.283 56.4049 374.541 61.3817 374.901 61.8426Z" fill="white"/>
<path d="M389.53 80.7641C389.89 81.2299 396.21 77.0033 403.65 71.3303C411.09 65.6573 416.831 60.6805 416.471 60.2196C416.111 59.7538 409.791 63.9804 402.351 69.6534C394.911 75.3264 389.169 80.3032 389.53 80.7641Z" fill="white"/>
<path d="M404.158 99.6855C404.518 100.151 410.837 95.9248 418.277 90.2518C425.718 84.5788 431.459 79.602 431.099 79.1411C430.738 78.6753 424.419 82.9019 416.979 88.5749C409.539 94.2479 403.797 99.2246 404.158 99.6855Z" fill="white"/>
<path d="M418.786 118.607C419.147 119.073 425.466 114.846 432.906 109.173C440.346 103.5 446.088 98.5235 445.727 98.0626C445.367 97.6017 439.048 101.823 431.607 107.496C424.167 113.169 418.426 118.146 418.786 118.607Z" fill="white"/>
<path d="M433.415 137.528C433.775 137.994 440.094 133.768 447.534 128.095C454.974 122.422 460.716 117.445 460.356 116.984C459.995 116.518 453.676 120.745 446.236 126.418C438.796 132.091 433.054 137.068 433.415 137.528Z" fill="white"/>
<path d="M448.043 156.45C448.403 156.916 454.723 152.689 462.163 147.016C469.603 141.343 475.345 136.366 474.984 135.906C474.624 135.44 468.304 139.666 460.864 145.339C453.424 151.012 447.683 155.989 448.043 156.45Z" fill="white"/>
<path d="M462.671 175.371C463.032 175.837 469.351 171.611 476.791 165.938C484.231 160.265 489.973 155.288 489.613 154.827C489.252 154.361 482.933 158.588 475.493 164.261C468.053 169.934 462.311 174.911 462.671 175.371Z" fill="white"/>
<path d="M477.3 194.293C477.66 194.759 483.98 190.532 491.42 184.859C498.86 179.186 504.601 174.209 504.241 173.749C503.881 173.283 497.561 177.509 490.121 183.182C482.681 188.855 476.939 193.832 477.3 194.293Z" fill="white"/>
<path d="M491.928 213.214C492.288 213.68 498.607 209.454 506.048 203.781C513.488 198.108 519.229 193.131 518.869 192.67C518.509 192.204 512.189 196.431 504.749 202.104C497.309 207.777 491.567 212.753 491.928 213.214Z" fill="white"/>
<path d="M506.556 232.131C506.917 232.597 513.236 228.37 520.676 222.697C528.116 217.024 533.858 212.047 533.497 211.586C533.137 211.121 526.818 215.347 519.377 221.02C511.937 226.693 506.196 231.67 506.556 232.131Z" fill="white"/>
<path d="M521.185 251.052C521.545 251.518 527.864 247.292 535.304 241.619C542.744 235.946 548.486 230.969 548.126 230.508C547.765 230.042 541.446 234.269 534.006 239.942C526.566 245.615 520.824 250.591 521.185 251.052Z" fill="white"/>
<path d="M297.336 0.689772C297.696 1.15558 304.016 -3.07101 311.456 -8.74403C318.896 -14.417 324.638 -19.3938 324.277 -19.8547C323.917 -20.3205 317.597 -16.0939 310.157 -10.4209C302.717 -4.7479 296.976 0.22887 297.336 0.689772Z" fill="white"/>
<path d="M311.964 19.6113C312.325 20.0771 318.644 15.8505 326.084 10.1775C333.524 4.50447 339.266 -0.472273 338.906 -0.933174C338.545 -1.39898 332.226 2.82758 324.786 8.50059C317.346 14.1736 311.604 19.1504 311.964 19.6113Z" fill="white"/>
<path d="M326.593 38.5328C326.953 38.9986 333.272 34.772 340.713 29.099C348.153 23.426 353.894 18.4492 353.534 17.9883C353.174 17.5225 346.854 21.7491 339.414 27.4221C331.974 33.0951 326.232 38.0719 326.593 38.5328Z" fill="white"/>
<path d="M341.221 57.4541C341.582 57.92 347.901 53.6934 355.341 48.0204C362.781 42.3474 368.523 37.3706 368.162 36.9097C367.802 36.4439 361.483 40.6705 354.043 46.3435C346.602 52.0165 340.861 56.9932 341.221 57.4541Z" fill="white"/>
<path d="M355.85 76.3708C356.21 76.8366 362.529 72.61 369.969 66.937C377.409 61.264 383.151 56.2872 382.791 55.8263C382.43 55.3605 376.111 59.5871 368.671 65.2601C361.231 70.9331 355.489 75.9099 355.85 76.3708Z" fill="white"/>
<path d="M370.478 95.2923C370.838 95.7581 377.157 91.5315 384.597 85.8585C392.037 80.1855 397.779 75.2087 397.419 74.7478C397.058 74.282 390.739 78.5086 383.299 84.1816C375.859 89.8546 370.117 94.8314 370.478 95.2923Z" fill="white"/>
<path d="M385.106 114.214C385.466 114.68 391.786 110.453 399.226 104.78C406.666 99.107 412.408 94.1302 412.047 93.6693C411.687 93.2035 405.367 97.4301 397.927 103.103C390.487 108.776 384.746 113.753 385.106 114.214Z" fill="white"/>
<path d="M399.734 133.135C400.095 133.601 406.414 129.374 413.854 123.701C421.294 118.028 427.036 113.052 426.676 112.591C426.315 112.125 419.996 116.352 412.556 122.025C405.116 127.698 399.374 132.674 399.734 133.135Z" fill="white"/>
<path d="M414.363 152.057C414.723 152.522 421.043 148.296 428.483 142.623C435.923 136.95 441.664 131.973 441.304 131.512C440.944 131.046 434.624 135.273 427.184 140.946C419.744 146.619 414.002 151.596 414.363 152.057Z" fill="white"/>
<path d="M428.991 170.978C429.352 171.444 435.671 167.217 443.111 161.544C450.551 155.871 456.293 150.895 455.932 150.434C455.572 149.968 449.253 154.194 441.813 159.868C434.373 165.541 428.631 170.517 428.991 170.978Z" fill="white"/>
<path d="M443.62 189.9C443.98 190.366 450.299 186.139 457.739 180.466C465.179 174.793 470.921 169.816 470.561 169.355C470.2 168.89 463.881 173.116 456.441 178.789C449.001 184.462 443.259 189.439 443.62 189.9Z" fill="white"/>
<path d="M458.248 208.821C458.608 209.287 464.927 205.06 472.367 199.387C479.807 193.714 485.549 188.737 485.189 188.277C484.828 187.811 478.509 192.037 471.069 197.71C463.629 203.383 457.887 208.36 458.248 208.821Z" fill="white"/>
<path d="M472.876 227.742C473.236 228.208 479.556 223.982 486.996 218.309C494.436 212.636 500.178 207.659 499.817 207.198C499.457 206.732 493.137 210.959 485.697 216.632C478.257 222.305 472.516 227.282 472.876 227.742Z" fill="white"/>
<path d="M487.504 246.659C487.865 247.125 494.184 242.898 501.624 237.225C509.064 231.552 514.806 226.576 514.446 226.115C514.085 225.649 507.766 229.875 500.326 235.548C492.886 241.221 487.144 246.198 487.504 246.659Z" fill="white"/>
<path d="M502.133 265.58C502.493 266.046 508.813 261.82 516.253 256.147C523.693 250.474 529.434 245.497 529.074 245.036C528.714 244.57 522.394 248.797 514.954 254.47C507.514 260.143 501.772 265.12 502.133 265.58Z" fill="white"/>
<path d="M516.761 284.502C517.121 284.968 523.441 280.741 530.881 275.068C538.321 269.395 544.062 264.419 543.702 263.958C543.342 263.492 537.022 267.718 529.582 273.391C522.142 279.064 516.4 284.041 516.761 284.502Z" fill="white"/>
<path d="M278.284 15.2179C278.645 15.6837 284.964 11.4572 292.404 5.78417C299.844 0.11116 305.586 -4.86558 305.225 -5.32648C304.865 -5.79229 298.546 -1.56573 291.106 4.10728C283.665 9.7803 277.924 14.757 278.284 15.2179Z" fill="white"/>
<path d="M292.913 34.1394C293.273 34.6053 299.592 30.3787 307.032 24.7057C314.472 19.0327 320.214 14.0559 319.854 13.595C319.493 13.1292 313.174 17.3558 305.734 23.0288C298.294 28.7018 292.552 33.6785 292.913 34.1394Z" fill="white"/>
<path d="M307.541 53.061C307.901 53.5268 314.221 49.3002 321.661 43.6272C329.101 37.9541 334.843 32.9774 334.482 32.5165C334.122 32.0507 327.802 36.2773 320.362 41.9503C312.922 47.6233 307.181 52.6001 307.541 53.061Z" fill="white"/>
<path d="M322.169 71.9823C322.529 72.4482 328.849 68.2216 336.289 62.5486C343.729 56.8756 349.471 51.8988 349.11 51.4379C348.75 50.9721 342.43 55.1987 334.99 60.8717C327.55 66.5447 321.809 71.5214 322.169 71.9823Z" fill="white"/>
<path d="M336.797 90.899C337.158 91.3648 343.477 87.1382 350.917 81.4652C358.357 75.7922 364.099 70.8154 363.739 70.3545C363.378 69.8887 357.059 74.1153 349.619 79.7883C342.179 85.4613 336.437 90.4381 336.797 90.899Z" fill="white"/>
<path d="M351.426 109.82C351.786 110.286 358.105 106.06 365.546 100.387C372.986 94.7137 378.727 89.737 378.367 89.2761C378.007 88.8102 371.687 93.0368 364.247 98.7098C356.807 104.383 351.065 109.36 351.426 109.82Z" fill="white"/>
<path d="M366.054 128.742C366.415 129.208 372.734 124.981 380.174 119.308C387.614 113.635 393.356 108.658 392.995 108.198C392.635 107.732 386.316 111.958 378.876 117.631C371.435 123.304 365.694 128.281 366.054 128.742Z" fill="white"/>
<path d="M380.683 147.663C381.043 148.129 387.362 143.903 394.802 138.23C402.242 132.557 407.984 127.58 407.624 127.119C407.263 126.653 400.944 130.88 393.504 136.553C386.064 142.226 380.322 147.203 380.683 147.663Z" fill="white"/>
<path d="M395.311 166.585C395.671 167.051 401.991 162.824 409.431 157.151C416.871 151.478 422.613 146.501 422.252 146.04C421.892 145.575 415.572 149.801 408.132 155.474C400.692 161.147 394.951 166.124 395.311 166.585Z" fill="white"/>
<path d="M409.939 185.506C410.299 185.972 416.619 181.746 424.059 176.073C431.499 170.4 437.241 165.423 436.88 164.962C436.52 164.496 430.2 168.723 422.76 174.396C415.32 180.069 409.579 185.046 409.939 185.506Z" fill="white"/>
<path d="M424.567 204.428C424.928 204.894 431.247 200.667 438.687 194.994C446.127 189.321 451.869 184.344 451.509 183.883C451.148 183.417 444.829 187.644 437.389 193.317C429.949 198.99 424.207 203.967 424.567 204.428Z" fill="white"/>
<path d="M439.196 223.349C439.556 223.815 445.876 219.588 453.316 213.915C460.756 208.242 466.497 203.266 466.137 202.805C465.777 202.339 459.457 206.566 452.017 212.239C444.577 217.912 438.835 222.888 439.196 223.349Z" fill="white"/>
<path d="M453.824 242.271C454.185 242.737 460.504 238.51 467.944 232.837C475.384 227.164 481.126 222.187 480.765 221.726C480.405 221.26 474.086 225.487 466.646 231.16C459.206 236.833 453.464 241.81 453.824 242.271Z" fill="white"/>
<path d="M468.453 261.187C468.813 261.653 475.132 257.426 482.572 251.753C490.013 246.08 495.754 241.104 495.394 240.643C495.033 240.177 488.714 244.404 481.274 250.077C473.834 255.75 468.092 260.726 468.453 261.187Z" fill="white"/>
<path d="M483.081 280.109C483.441 280.575 489.76 276.348 497.2 270.675C504.64 265.002 510.382 260.025 510.022 259.564C509.661 259.099 503.342 263.325 495.902 268.998C488.462 274.671 482.72 279.648 483.081 280.109Z" fill="white"/>
<path d="M497.709 299.03C498.069 299.496 504.389 295.27 511.829 289.597C519.269 283.924 525.011 278.947 524.65 278.486C524.29 278.02 517.97 282.247 510.53 287.92C503.09 293.593 497.349 298.57 497.709 299.03Z" fill="white"/>
<path d="M512.337 317.952C512.698 318.418 519.017 314.191 526.457 308.518C533.897 302.845 539.639 297.868 539.279 297.407C538.918 296.941 532.599 301.168 525.159 306.841C517.719 312.514 511.977 317.491 512.337 317.952Z" fill="white"/>
<path d="M244.604 10.8247C244.964 11.2905 251.284 7.0639 258.724 1.39089C266.164 -4.28212 271.906 -9.25889 271.545 -9.7198C271.185 -10.1856 264.865 -5.95904 257.425 -0.286027C249.985 5.38698 244.244 10.3638 244.604 10.8247Z" fill="white"/>
<path d="M259.232 29.7461C259.593 30.2119 265.912 25.9854 273.352 20.3124C280.792 14.6394 286.534 9.66261 286.174 9.20171C285.813 8.73591 279.494 12.9625 272.054 18.6355C264.614 24.3085 258.872 29.2852 259.232 29.7461Z" fill="white"/>
<path d="M273.861 48.6676C274.221 49.1335 280.541 44.9069 287.981 39.2339C295.421 33.5609 301.162 28.5841 300.802 28.1232C300.442 27.6574 294.122 31.884 286.682 37.557C279.242 43.23 273.5 48.2067 273.861 48.6676Z" fill="white"/>
<path d="M288.489 67.5892C288.849 68.055 295.168 63.8284 302.609 58.1554C310.049 52.4823 315.79 47.5056 315.43 47.0447C315.07 46.5789 308.75 50.8055 301.31 56.4785C293.87 62.1515 288.128 67.1283 288.489 67.5892Z" fill="white"/>
<path d="M303.117 86.5106C303.478 86.9764 309.797 82.7498 317.237 77.0768C324.677 71.4038 330.419 66.427 330.058 65.9661C329.698 65.5003 323.379 69.7269 315.939 75.3999C308.499 81.0729 302.757 86.0497 303.117 86.5106Z" fill="white"/>
<path d="M317.746 105.427C318.106 105.893 324.425 101.666 331.865 95.9934C339.305 90.3204 345.047 85.3436 344.687 84.8827C344.326 84.4169 338.007 88.6435 330.567 94.3165C323.127 99.9895 317.385 104.966 317.746 105.427Z" fill="white"/>
<path d="M332.374 124.349C332.734 124.814 339.054 120.588 346.494 114.915C353.934 109.242 359.676 104.265 359.315 103.804C358.955 103.338 352.635 107.565 345.195 113.238C337.755 118.911 332.014 123.888 332.374 124.349Z" fill="white"/>
<path d="M347.002 143.27C347.363 143.736 353.682 139.509 361.122 133.836C368.562 128.163 374.304 123.187 373.944 122.726C373.583 122.26 367.264 126.486 359.824 132.159C352.384 137.832 346.642 142.809 347.002 143.27Z" fill="white"/>
<path d="M361.63 162.192C361.991 162.657 368.31 158.431 375.75 152.758C383.19 147.085 388.932 142.108 388.572 141.647C388.211 141.181 381.892 145.408 374.452 151.081C367.012 156.754 361.27 161.731 361.63 162.192Z" fill="white"/>
<path d="M376.259 181.113C376.619 181.579 382.939 177.352 390.379 171.679C397.819 166.006 403.56 161.03 403.2 160.569C402.84 160.103 396.52 164.329 389.08 170.002C381.64 175.675 375.898 180.652 376.259 181.113Z" fill="white"/>
<path d="M390.887 200.034C391.248 200.5 397.567 196.274 405.007 190.601C412.447 184.928 418.189 179.951 417.828 179.49C417.468 179.024 411.149 183.251 403.709 188.924C396.268 194.597 390.527 199.574 390.887 200.034Z" fill="white"/>
<path d="M405.516 218.956C405.876 219.422 412.195 215.195 419.635 209.522C427.075 203.849 432.817 198.872 432.457 198.412C432.096 197.946 425.777 202.172 418.337 207.845C410.897 213.518 405.155 218.495 405.516 218.956Z" fill="white"/>
<path d="M420.144 237.877C420.504 238.343 426.824 234.117 434.264 228.444C441.704 222.771 447.446 217.794 447.085 217.333C446.725 216.867 440.405 221.094 432.965 226.767C425.525 232.44 419.784 237.417 420.144 237.877Z" fill="white"/>
<path d="M434.772 256.799C435.132 257.265 441.452 253.038 448.892 247.365C456.332 241.692 462.074 236.715 461.713 236.254C461.353 235.789 455.033 240.015 447.593 245.688C440.153 251.361 434.412 256.338 434.772 256.799Z" fill="white"/>
<path d="M449.4 275.715C449.761 276.181 456.08 271.955 463.52 266.282C470.96 260.609 476.702 255.632 476.342 255.171C475.981 254.705 469.662 258.932 462.222 264.605C454.782 270.278 449.04 275.255 449.4 275.715Z" fill="white"/>
<path d="M464.029 294.637C464.389 295.103 470.709 290.876 478.149 285.203C485.589 279.53 491.33 274.553 490.97 274.093C490.61 273.627 484.29 277.853 476.85 283.526C469.41 289.199 463.668 294.176 464.029 294.637Z" fill="white"/>
<path d="M478.657 313.559C479.018 314.024 485.337 309.798 492.777 304.125C500.217 298.452 505.959 293.475 505.598 293.014C505.238 292.548 498.919 296.775 491.479 302.448C484.039 308.121 478.297 313.098 478.657 313.559Z" fill="white"/>
<path d="M493.286 332.48C493.646 332.946 499.965 328.719 507.405 323.046C514.846 317.373 520.587 312.396 520.227 311.936C519.866 311.47 513.547 315.696 506.107 321.369C498.667 327.042 492.925 332.019 493.286 332.48Z" fill="white"/>
<path d="M507.914 351.401C508.274 351.867 514.594 347.641 522.034 341.968C529.474 336.295 535.216 331.318 534.855 330.857C534.495 330.391 528.175 334.618 520.735 340.291C513.295 345.964 507.554 350.94 507.914 351.401Z" fill="white"/>
<path d="M522.547 370.323C522.908 370.789 529.227 366.562 536.667 360.889C544.107 355.216 549.849 350.239 549.489 349.779C549.128 349.313 542.809 353.539 535.369 359.212C527.929 364.885 522.187 369.862 522.547 370.323Z" fill="white"/>
<path d="M210.924 6.43144C211.284 6.89725 217.604 2.67069 225.044 -3.00233C232.484 -8.67534 238.225 -13.6521 237.865 -14.113C237.505 -14.5788 231.185 -10.3522 223.745 -4.67922C216.305 0.993797 210.563 5.97054 210.924 6.43144Z" fill="white"/>
<path d="M225.552 25.3529C225.913 25.8187 232.232 21.5921 239.672 15.9191C247.112 10.2461 252.854 5.26933 252.493 4.80843C252.133 4.34263 245.814 8.56919 238.374 14.2422C230.934 19.9152 225.192 24.892 225.552 25.3529Z" fill="white"/>
<path d="M240.18 44.2744C240.541 44.7402 246.86 40.5136 254.3 34.8406C261.74 29.1676 267.482 24.1908 267.121 23.7299C266.761 23.2641 260.442 27.4907 253.002 33.1637C245.561 38.8367 239.82 43.8135 240.18 44.2744Z" fill="white"/>
<path d="M254.809 63.1959C255.169 63.6617 261.488 59.4351 268.928 53.7621C276.368 48.0891 282.11 43.1123 281.75 42.6514C281.389 42.1856 275.07 46.4122 267.63 52.0852C260.19 57.7582 254.448 62.735 254.809 63.1959Z" fill="white"/>
<path d="M269.437 82.1173C269.797 82.5831 276.117 78.3566 283.557 72.6836C290.997 67.0105 296.739 62.0338 296.378 61.5729C296.018 61.1071 289.698 65.3337 282.258 71.0067C274.818 76.6797 269.077 81.6564 269.437 82.1173Z" fill="white"/>
<path d="M284.065 101.039C284.426 101.505 290.745 97.278 298.185 91.605C305.625 85.932 311.367 80.9552 311.007 80.4943C310.646 80.0285 304.327 84.2551 296.887 89.9281C289.447 95.6011 283.705 100.578 284.065 101.039Z" fill="white"/>
<path d="M298.694 119.955C299.054 120.421 305.374 116.195 312.814 110.522C320.254 104.849 325.995 99.8718 325.635 99.4109C325.275 98.9451 318.955 103.172 311.515 108.845C304.075 114.518 298.333 119.494 298.694 119.955Z" fill="white"/>
<path d="M313.322 138.877C313.683 139.343 320.002 135.116 327.442 129.443C334.882 123.77 340.624 118.793 340.263 118.332C339.903 117.867 333.584 122.093 326.144 127.766C318.704 133.439 312.962 138.416 313.322 138.877Z" fill="white"/>
<path d="M327.95 157.798C328.311 158.264 334.63 154.038 342.07 148.365C349.51 142.692 355.252 137.715 354.891 137.254C354.531 136.788 348.212 141.015 340.772 146.688C333.331 152.361 327.59 157.337 327.95 157.798Z" fill="white"/>
<path d="M342.579 176.72C342.939 177.186 349.258 172.959 356.698 167.286C364.138 161.613 369.88 156.636 369.52 156.175C369.159 155.71 362.84 159.936 355.4 165.609C347.96 171.282 342.218 176.259 342.579 176.72Z" fill="white"/>
<path d="M357.207 195.641C357.567 196.107 363.887 191.881 371.327 186.208C378.767 180.535 384.509 175.558 384.148 175.097C383.788 174.631 377.468 178.858 370.028 184.531C362.588 190.204 356.847 195.18 357.207 195.641Z" fill="white"/>
<path d="M371.835 214.563C372.196 215.028 378.515 210.802 385.955 205.129C393.395 199.456 399.137 194.479 398.777 194.018C398.416 193.552 392.097 197.779 384.657 203.452C377.217 209.125 371.475 214.102 371.835 214.563Z" fill="white"/>
<path d="M386.463 233.484C386.824 233.95 393.143 229.723 400.583 224.05C408.023 218.377 413.765 213.401 413.405 212.94C413.044 212.474 406.725 216.701 399.285 222.374C391.845 228.047 386.103 233.023 386.463 233.484Z" fill="white"/>
<path d="M401.092 252.406C401.452 252.871 407.772 248.645 415.212 242.972C422.652 237.299 428.393 232.322 428.033 231.861C427.673 231.395 421.353 235.622 413.913 241.295C406.473 246.968 400.731 251.945 401.092 252.406Z" fill="white"/>
<path d="M415.725 271.327C416.085 271.793 422.405 267.566 429.845 261.893C437.285 256.22 443.027 251.244 442.666 250.783C442.306 250.317 435.987 254.543 428.546 260.216C421.106 265.889 415.365 270.866 415.725 271.327Z" fill="white"/>
<path d="M430.353 290.249C430.714 290.714 437.033 286.488 444.473 280.815C451.913 275.142 457.655 270.165 457.295 269.704C456.934 269.238 450.615 273.465 443.175 279.138C435.735 284.811 429.993 289.788 430.353 290.249Z" fill="white"/>
<path d="M444.982 309.165C445.342 309.631 451.662 305.404 459.102 299.731C466.542 294.058 472.284 289.082 471.923 288.621C471.563 288.16 465.243 292.382 457.803 298.055C450.363 303.728 444.621 308.704 444.982 309.165Z" fill="white"/>
<path d="M459.61 328.087C459.971 328.552 466.29 324.326 473.73 318.653C481.17 312.98 486.912 308.003 486.552 307.542C486.191 307.076 479.872 311.303 472.432 316.976C464.992 322.649 459.25 327.626 459.61 328.087Z" fill="white"/>
<path d="M474.239 347.008C474.599 347.474 480.918 343.247 488.359 337.574C495.799 331.901 501.54 326.925 501.18 326.464C500.82 325.998 494.5 330.224 487.06 335.897C479.62 341.57 473.878 346.547 474.239 347.008Z" fill="white"/>
<path d="M488.867 365.93C489.227 366.395 495.546 362.169 502.986 356.496C510.427 350.823 516.168 345.846 515.808 345.385C515.447 344.919 509.128 349.146 501.688 354.819C494.248 360.492 488.506 365.469 488.867 365.93Z" fill="white"/>
<path d="M503.495 384.851C503.855 385.317 510.175 381.09 517.615 375.417C525.055 369.744 530.797 364.768 530.436 364.307C530.076 363.841 523.757 368.067 516.316 373.74C508.876 379.414 503.135 384.39 503.495 384.851Z" fill="white"/>
<path d="M518.124 403.773C518.484 404.238 524.803 400.012 532.243 394.339C539.683 388.666 545.425 383.689 545.065 383.228C544.704 382.762 538.385 386.989 530.945 392.662C523.505 398.335 517.763 403.312 518.124 403.773Z" fill="white"/>
<path d="M177.244 2.03816C177.604 2.50397 183.923 -1.72263 191.363 -7.39564C198.803 -13.0686 204.545 -18.0454 204.185 -18.5063C203.824 -18.9721 197.505 -14.7455 190.065 -9.07253C182.625 -3.39951 176.883 1.57726 177.244 2.03816Z" fill="white"/>
<path d="M191.872 20.9596C192.232 21.4254 198.551 17.1989 205.991 11.5259C213.431 5.85286 219.173 0.876116 218.813 0.415214C218.452 -0.0505905 212.133 4.17597 204.693 9.84898C197.253 15.522 191.511 20.4987 191.872 20.9596Z" fill="white"/>
<path d="M206.5 39.8811C206.86 40.3469 213.18 36.1203 220.62 30.4473C228.06 24.7743 233.802 19.7975 233.441 19.3366C233.081 18.8708 226.761 23.0974 219.321 28.7704C211.881 34.4434 206.14 39.4202 206.5 39.8811Z" fill="white"/>
<path d="M221.128 58.8025C221.489 59.2683 227.808 55.0418 235.248 49.3688C242.688 43.6958 248.43 38.719 248.07 38.2581C247.709 37.7923 241.39 42.0189 233.95 47.6919C226.51 53.3649 220.768 58.3416 221.128 58.8025Z" fill="white"/>
<path d="M235.757 77.7241C236.117 78.1899 242.437 73.9633 249.877 68.2903C257.317 62.6173 263.058 57.6405 262.698 57.1796C262.338 56.7138 256.018 60.9404 248.578 66.6134C241.138 72.2864 235.396 77.2632 235.757 77.7241Z" fill="white"/>
<path d="M250.385 96.6455C250.746 97.1113 257.065 92.8847 264.505 87.2117C271.945 81.5387 277.687 76.562 277.326 76.1011C276.966 75.6353 270.647 79.8618 263.207 85.5348C255.767 91.2078 250.025 96.1846 250.385 96.6455Z" fill="white"/>
<path d="M265.014 115.567C265.374 116.033 271.693 111.806 279.133 106.133C286.574 100.46 292.315 95.4835 291.955 95.0226C291.594 94.5568 285.275 98.7833 277.835 104.456C270.395 110.129 264.653 115.106 265.014 115.567Z" fill="white"/>
<path d="M279.642 134.484C280.002 134.949 286.321 130.723 293.761 125.05C301.201 119.377 306.943 114.4 306.583 113.939C306.222 113.478 299.903 117.7 292.463 123.373C285.023 129.046 279.281 134.023 279.642 134.484Z" fill="white"/>
<path d="M294.27 153.405C294.63 153.871 300.95 149.644 308.39 143.971C315.83 138.298 321.572 133.322 321.211 132.861C320.851 132.395 314.531 136.621 307.091 142.294C299.651 147.967 293.91 152.944 294.27 153.405Z" fill="white"/>
<path d="M308.898 172.327C309.259 172.792 315.578 168.566 323.018 162.893C330.458 157.22 336.2 152.243 335.84 151.782C335.479 151.316 329.16 155.543 321.72 161.216C314.28 166.889 308.538 171.866 308.898 172.327Z" fill="white"/>
<path d="M323.532 191.248C323.892 191.714 330.211 187.487 337.652 181.814C345.092 176.141 350.833 171.165 350.473 170.704C350.113 170.238 343.793 174.464 336.353 180.137C328.913 185.81 323.171 190.787 323.532 191.248Z" fill="white"/>
<path d="M338.16 210.169C338.521 210.635 344.84 206.409 352.28 200.736C359.72 195.063 365.462 190.086 365.101 189.625C364.741 189.159 358.422 193.386 350.982 199.059C343.541 204.732 337.8 209.709 338.16 210.169Z" fill="white"/>
<path d="M352.789 229.091C353.149 229.557 359.468 225.33 366.908 219.657C374.348 213.984 380.09 209.007 379.73 208.546C379.369 208.081 373.05 212.307 365.61 217.98C358.17 223.653 352.428 228.63 352.789 229.091Z" fill="white"/>
<path d="M367.416 248.012C367.777 248.478 374.096 244.252 381.536 238.579C388.976 232.906 394.718 227.929 394.358 227.468C393.997 227.002 387.678 231.229 380.238 236.902C372.798 242.575 367.056 247.551 367.416 248.012Z" fill="white"/>
<path d="M382.045 266.934C382.405 267.4 388.725 263.173 396.165 257.5C403.605 251.827 409.346 246.85 408.986 246.389C408.626 245.924 402.306 250.15 394.866 255.823C387.426 261.496 381.684 266.473 382.045 266.934Z" fill="white"/>
<path d="M396.673 285.855C397.034 286.321 403.353 282.094 410.793 276.421C418.233 270.748 423.975 265.772 423.615 265.311C423.254 264.845 416.935 269.072 409.495 274.745C402.055 280.418 396.313 285.394 396.673 285.855Z" fill="white"/>
<path d="M411.302 304.777C411.662 305.243 417.982 301.016 425.422 295.343C432.862 289.67 438.603 284.693 438.243 284.232C437.883 283.767 431.563 287.993 424.123 293.666C416.683 299.339 410.941 304.316 411.302 304.777Z" fill="white"/>
<path d="M425.93 323.693C426.291 324.159 432.61 319.933 440.05 314.26C447.49 308.587 453.232 303.61 452.871 303.149C452.511 302.683 446.192 306.91 438.752 312.583C431.311 318.256 425.57 323.233 425.93 323.693Z" fill="white"/>
<path d="M440.558 342.615C440.918 343.081 447.238 338.854 454.678 333.181C462.118 327.508 467.86 322.531 467.499 322.07C467.139 321.605 460.82 325.831 453.379 331.504C445.939 337.177 440.198 342.154 440.558 342.615Z" fill="white"/>
<path d="M455.186 361.536C455.547 362.002 461.866 357.776 469.306 352.103C476.746 346.43 482.488 341.453 482.128 340.992C481.767 340.526 475.448 344.753 468.008 350.426C460.568 356.099 454.826 361.076 455.186 361.536Z" fill="white"/>
<path d="M469.815 380.458C470.175 380.924 476.495 376.697 483.935 371.024C491.375 365.351 497.117 360.374 496.756 359.913C496.396 359.448 490.076 363.674 482.636 369.347C475.196 375.02 469.455 379.997 469.815 380.458Z" fill="white"/>
<path d="M484.443 399.379C484.804 399.845 491.123 395.619 498.563 389.945C506.003 384.272 511.745 379.296 511.385 378.835C511.024 378.369 504.705 382.596 497.265 388.269C489.825 393.942 484.083 398.918 484.443 399.379Z" fill="white"/>
<path d="M499.072 418.301C499.432 418.767 505.751 414.54 513.192 408.867C520.632 403.194 526.373 398.217 526.013 397.756C525.653 397.291 519.333 401.517 511.893 407.19C504.453 412.863 498.711 417.84 499.072 418.301Z" fill="white"/>
<path d="M513.7 437.222C513.878 437.453 520.054 433.045 527.494 427.367C534.934 421.694 540.819 416.908 540.641 416.673C540.464 416.443 534.288 420.85 526.847 426.528C519.407 432.201 513.522 436.987 513.7 437.222Z" fill="white"/>
<path d="M158.191 16.5663C158.552 17.0321 164.871 12.8056 172.311 7.13256C179.751 1.45955 185.493 -3.51719 185.133 -3.9781C184.772 -4.4439 178.453 -0.21734 171.013 5.45567C163.573 11.1287 157.831 16.1054 158.191 16.5663Z" fill="white"/>
<path d="M172.82 35.4878C173.18 35.9536 179.5 31.727 186.94 26.054C194.38 20.381 200.121 15.4042 199.761 14.9433C199.401 14.4775 193.081 18.7041 185.641 24.3771C178.201 30.0501 172.459 35.0269 172.82 35.4878Z" fill="white"/>
<path d="M187.448 54.4093C187.809 54.8751 194.128 50.6485 201.568 44.9755C209.008 39.3025 214.75 34.3257 214.389 33.8648C214.029 33.399 207.71 37.6256 200.27 43.2986C192.83 48.9716 187.088 53.9484 187.448 54.4093Z" fill="white"/>
<path d="M202.082 73.3308C202.442 73.7966 208.761 69.57 216.201 63.897C223.641 58.224 229.383 53.2472 229.023 52.7863C228.662 52.3205 222.343 56.5471 214.903 62.2201C207.463 67.8931 201.721 72.8699 202.082 73.3308Z" fill="white"/>
<path d="M216.705 92.2523C217.065 92.7181 223.385 88.4915 230.825 82.8185C238.265 77.1455 244.007 72.1687 243.646 71.7078C243.286 71.242 236.966 75.4686 229.526 81.1416C222.086 86.8146 216.345 91.7914 216.705 92.2523Z" fill="white"/>
<path d="M231.338 111.174C231.699 111.64 238.018 107.413 245.458 101.74C252.898 96.067 258.64 91.0903 258.28 90.6294C257.919 90.1636 251.6 94.3901 244.16 100.063C236.72 105.736 230.978 110.713 231.338 111.174Z" fill="white"/>
<path d="M245.966 130.095C246.327 130.561 252.646 126.334 260.086 120.661C267.526 114.988 273.268 110.012 272.908 109.551C272.547 109.085 266.228 113.312 258.788 118.985C251.348 124.658 245.606 129.634 245.966 130.095Z" fill="white"/>
<path d="M260.595 149.017C260.955 149.483 267.274 145.256 274.715 139.583C282.155 133.91 287.896 128.933 287.536 128.472C287.175 128.006 280.856 132.233 273.416 137.906C265.976 143.579 260.234 148.556 260.595 149.017Z" fill="white"/>
<path d="M275.223 167.933C275.584 168.399 281.903 164.173 289.343 158.5C296.783 152.827 302.525 147.85 302.164 147.389C301.804 146.923 295.485 151.15 288.045 156.823C280.604 162.496 274.863 167.472 275.223 167.933Z" fill="white"/>
<path d="M289.852 186.855C290.212 187.321 296.531 183.094 303.971 177.421C311.411 171.748 317.153 166.771 316.793 166.31C316.432 165.845 310.113 170.071 302.673 175.744C295.233 181.417 289.491 186.394 289.852 186.855Z" fill="white"/>
<path d="M304.48 205.776C304.84 206.242 311.16 202.015 318.6 196.342C326.04 190.669 331.782 185.692 331.421 185.232C331.061 184.766 324.741 188.992 317.301 194.665C309.861 200.338 304.12 205.315 304.48 205.776Z" fill="white"/>
<path d="M319.108 224.698C319.468 225.163 325.788 220.937 333.228 215.264C340.668 209.591 346.409 204.614 346.049 204.153C345.689 203.687 339.369 207.914 331.929 213.587C324.489 219.26 318.747 224.237 319.108 224.698Z" fill="white"/>
<path d="M333.736 243.619C334.097 244.085 340.416 239.858 347.856 234.185C355.296 228.512 361.038 223.536 360.678 223.075C360.317 222.609 353.998 226.835 346.558 232.508C339.118 238.181 333.376 243.158 333.736 243.619Z" fill="white"/>
<path d="M348.365 262.541C348.725 263.006 355.044 258.78 362.485 253.107C369.925 247.434 375.666 242.457 375.306 241.996C374.946 241.53 368.626 245.757 361.186 251.43C353.746 257.103 348.004 262.08 348.365 262.541Z" fill="white"/>
<path d="M362.993 281.462C363.354 281.928 369.673 277.701 377.113 272.028C384.553 266.355 390.295 261.378 389.934 260.918C389.574 260.452 383.255 264.678 375.815 270.351C368.374 276.024 362.633 281.001 362.993 281.462Z" fill="white"/>
<path d="M377.622 300.384C377.982 300.849 384.301 296.623 391.741 290.95C399.181 285.277 404.923 280.3 404.563 279.839C404.202 279.373 397.883 283.6 390.443 289.273C383.003 294.946 377.261 299.923 377.622 300.384Z" fill="white"/>
<path d="M392.25 319.305C392.61 319.771 398.93 315.544 406.37 309.871C413.81 304.198 419.552 299.221 419.191 298.761C418.831 298.295 412.511 302.521 405.071 308.194C397.631 313.867 391.89 318.844 392.25 319.305Z" fill="white"/>
<path d="M406.878 338.222C407.238 338.687 413.558 334.461 420.998 328.788C428.438 323.115 434.18 318.138 433.819 317.677C433.459 317.211 427.139 321.438 419.699 327.111C412.259 332.784 406.517 337.761 406.878 338.222Z" fill="white"/>
<path d="M421.506 357.143C421.867 357.609 428.186 353.382 435.626 347.709C443.066 342.036 448.808 337.059 448.448 336.599C448.087 336.133 441.768 340.359 434.328 346.032C426.888 351.705 421.146 356.682 421.506 357.143Z" fill="white"/>
<path d="M436.135 376.065C436.495 376.53 442.814 372.304 450.255 366.631C457.695 360.958 463.436 355.981 463.076 355.52C462.716 355.054 456.396 359.281 448.956 364.954C441.516 370.627 435.774 375.604 436.135 376.065Z" fill="white"/>
<path d="M450.763 394.986C451.124 395.452 457.443 391.225 464.883 385.552C472.323 379.879 478.065 374.903 477.704 374.442C477.344 373.976 471.025 378.202 463.585 383.875C456.144 389.548 450.403 394.525 450.763 394.986Z" fill="white"/>
<path d="M465.392 413.908C465.752 414.373 472.071 410.147 479.511 404.474C486.951 398.801 492.693 393.824 492.333 393.363C491.972 392.897 485.653 397.124 478.213 402.797C470.773 408.47 465.031 413.447 465.392 413.908Z" fill="white"/>
<path d="M480.02 432.829C480.38 433.295 486.7 429.068 494.14 423.395C501.58 417.722 507.322 412.745 506.961 412.285C506.601 411.819 500.281 416.045 492.841 421.718C485.401 427.391 479.66 432.368 480.02 432.829Z" fill="white"/>
<path d="M494.648 451.751C494.717 451.839 500.8 447.308 508.24 441.635C515.68 435.962 521.658 431.289 521.589 431.206C521.52 431.118 515.438 435.648 507.998 441.321C500.558 446.994 494.579 451.667 494.648 451.751Z" fill="white"/>
<path d="M124.516 12.1731C124.876 12.6389 131.196 8.41232 138.636 2.73931C146.076 -2.9337 151.818 -7.91047 151.457 -8.37138C151.097 -8.83718 144.778 -4.61062 137.337 1.06239C129.897 6.7354 124.156 11.7122 124.516 12.1731Z" fill="white"/>
<path d="M139.144 31.0946C139.505 31.5604 145.824 27.3338 153.264 21.6608C160.704 15.9878 166.446 11.011 166.086 10.5501C165.725 10.0843 159.406 14.3109 151.966 19.9839C144.526 25.6569 138.784 30.6337 139.144 31.0946Z" fill="white"/>
<path d="M153.773 50.016C154.133 50.4818 160.453 46.2552 167.893 40.5822C175.333 34.9092 181.075 29.9325 180.714 29.4715C180.354 29.0057 174.034 33.2323 166.594 38.9053C159.154 44.5784 153.413 49.5551 153.773 50.016Z" fill="white"/>
<path d="M168.401 68.9375C168.762 69.4033 175.081 65.1767 182.521 59.5037C189.961 53.8307 195.703 48.854 195.343 48.3931C194.982 47.9273 188.663 52.1538 181.223 57.8268C173.783 63.4998 168.041 68.4766 168.401 68.9375Z" fill="white"/>
<path d="M183.03 87.859C183.39 88.3248 189.71 84.0982 197.15 78.4252C204.59 72.7522 210.331 67.7754 209.971 67.3145C209.611 66.8487 203.291 71.0753 195.851 76.7483C188.411 82.4213 182.669 87.3981 183.03 87.859Z" fill="white"/>
<path d="M197.658 106.781C198.019 107.246 204.338 103.02 211.778 97.3467C219.218 91.6737 224.96 86.697 224.599 86.2361C224.239 85.7703 217.92 89.9968 210.48 95.6698C203.04 101.343 197.298 106.32 197.658 106.781Z" fill="white"/>
<path d="M212.286 125.702C212.647 126.168 218.966 121.941 226.406 116.268C233.846 110.595 239.588 105.618 239.227 105.157C238.867 104.697 232.548 108.918 225.107 114.591C217.667 120.264 211.926 125.241 212.286 125.702Z" fill="white"/>
<path d="M226.915 144.623C227.275 145.089 233.594 140.863 241.034 135.19C248.474 129.517 254.216 124.54 253.856 124.079C253.495 123.613 247.176 127.84 239.736 133.513C232.296 139.186 226.554 144.163 226.915 144.623Z" fill="white"/>
<path d="M241.543 163.545C241.903 164.011 248.223 159.784 255.663 154.111C263.103 148.438 268.845 143.461 268.484 143C268.124 142.535 261.804 146.761 254.364 152.434C246.924 158.107 241.183 163.084 241.543 163.545Z" fill="white"/>
<path d="M256.171 182.462C256.532 182.927 262.851 178.701 270.291 173.028C277.731 167.355 283.473 162.378 283.113 161.917C282.752 161.451 276.433 165.678 268.993 171.351C261.553 177.024 255.811 182.001 256.171 182.462Z" fill="white"/>
<path d="M270.799 201.383C271.16 201.849 277.479 197.622 284.919 191.949C292.359 186.276 298.101 181.299 297.741 180.838C297.38 180.373 291.061 184.599 283.621 190.272C276.181 195.945 270.439 200.922 270.799 201.383Z" fill="white"/>
<path d="M285.428 220.304C285.788 220.77 292.107 216.544 299.548 210.871C306.988 205.198 312.729 200.221 312.369 199.76C312.009 199.294 305.689 203.521 298.249 209.194C290.809 214.867 285.067 219.843 285.428 220.304Z" fill="white"/>
<path d="M300.056 239.226C300.417 239.692 306.736 235.465 314.176 229.792C321.616 224.119 327.358 219.142 326.997 218.681C326.637 218.216 320.318 222.442 312.877 228.115C305.437 233.788 299.696 238.765 300.056 239.226Z" fill="white"/>
<path d="M314.685 258.147C315.045 258.613 321.364 254.387 328.804 248.714C336.244 243.041 341.986 238.064 341.626 237.603C341.265 237.137 334.946 241.364 327.506 247.037C320.066 252.71 314.324 257.686 314.685 258.147Z" fill="white"/>
<path d="M329.313 277.069C329.673 277.535 335.993 273.308 343.433 267.635C350.873 261.962 356.615 256.985 356.254 256.524C355.894 256.059 349.574 260.285 342.134 265.958C334.694 271.631 328.953 276.608 329.313 277.069Z" fill="white"/>
<path d="M343.941 295.99C344.302 296.456 350.621 292.23 358.061 286.557C365.501 280.883 371.243 275.907 370.883 275.446C370.522 274.98 364.203 279.207 356.763 284.88C349.323 290.553 343.581 295.529 343.941 295.99Z" fill="white"/>
<path d="M358.57 314.912C358.93 315.377 365.25 311.151 372.69 305.478C380.13 299.805 385.871 294.828 385.511 294.367C385.151 293.901 378.831 298.128 371.391 303.801C363.951 309.474 358.209 314.451 358.57 314.912Z" fill="white"/>
<path d="M373.198 333.833C373.558 334.299 379.878 330.073 387.318 324.4C394.758 318.727 400.499 313.75 400.139 313.289C399.779 312.823 393.459 317.05 386.019 322.723C378.579 328.396 372.837 333.372 373.198 333.833Z" fill="white"/>
<path d="M387.826 352.75C388.187 353.216 394.506 348.989 401.946 343.316C409.386 337.643 415.128 332.666 414.767 332.205C414.407 331.74 408.088 335.966 400.648 341.639C393.207 347.312 387.466 352.289 387.826 352.75Z" fill="white"/>
<path d="M402.455 371.671C402.815 372.137 409.134 367.91 416.574 362.237C424.014 356.564 429.756 351.588 429.396 351.127C429.035 350.661 422.716 354.888 415.276 360.561C407.836 366.234 402.094 371.21 402.455 371.671Z" fill="white"/>
<path d="M417.083 390.593C417.443 391.059 423.763 386.832 431.203 381.159C438.643 375.486 444.385 370.509 444.024 370.048C443.664 369.583 437.344 373.809 429.904 379.482C422.464 385.155 416.723 390.132 417.083 390.593Z" fill="white"/>
<path d="M431.711 409.514C432.072 409.98 438.391 405.754 445.831 400.08C453.271 394.407 459.013 389.431 458.653 388.97C458.292 388.504 451.973 392.731 444.533 398.404C437.093 404.077 431.351 409.053 431.711 409.514Z" fill="white"/>
<path d="M446.339 428.436C446.7 428.901 453.019 424.675 460.459 419.002C467.899 413.329 473.641 408.352 473.281 407.891C472.92 407.425 466.601 411.652 459.161 417.325C451.721 422.998 445.979 427.975 446.339 428.436Z" fill="white"/>
<path d="M460.968 447.357C461.215 447.676 467.445 443.337 474.885 437.664C482.325 431.991 488.156 427.132 487.909 426.813C487.662 426.494 481.432 430.833 473.992 436.507C466.552 442.18 460.721 447.039 460.968 447.357Z" fill="white"/>
<path d="M90.8359 7.78466C91.1963 8.25046 97.5157 4.0239 104.956 -1.64911C112.396 -7.32212 118.138 -12.2989 117.777 -12.7598C117.417 -13.2207 111.097 -8.99901 103.657 -3.326C96.2172 2.34701 90.4755 7.32376 90.8359 7.78466Z" fill="white"/>
<path d="M105.464 26.7013C105.825 27.1671 112.144 22.9405 119.584 17.2675C127.024 11.5945 132.766 6.61772 132.406 6.15682C132.045 5.69102 125.726 9.91758 118.286 15.5906C110.846 21.2636 105.104 26.2404 105.464 26.7013Z" fill="white"/>
<path d="M120.093 45.6228C120.453 46.0886 126.773 41.862 134.213 36.189C141.653 30.516 147.394 25.5392 147.034 25.0783C146.674 24.6125 140.354 28.8391 132.914 34.5121C125.474 40.1851 119.732 45.1619 120.093 45.6228Z" fill="white"/>
<path d="M134.721 64.5442C135.082 65.01 141.401 60.7834 148.841 55.1104C156.281 49.4374 162.023 44.4606 161.662 43.9997C161.302 43.5339 154.983 47.7605 147.543 53.4335C140.102 59.1065 134.361 64.0833 134.721 64.5442Z" fill="white"/>
<path d="M149.35 83.4657C149.71 83.9315 156.029 79.7049 163.469 74.0319C170.909 68.3589 176.651 63.3821 176.291 62.9212C175.93 62.4554 169.611 66.682 162.171 72.355C154.731 78.028 148.989 83.0048 149.35 83.4657Z" fill="white"/>
<path d="M163.978 102.387C164.338 102.853 170.657 98.6265 178.097 92.9535C185.537 87.2805 191.279 82.3037 190.919 81.8428C190.558 81.377 184.239 85.6036 176.799 91.2766C169.359 96.9496 163.617 101.926 163.978 102.387Z" fill="white"/>
<path d="M178.606 121.309C178.966 121.774 185.286 117.548 192.726 111.875C200.166 106.202 205.908 101.225 205.547 100.764C205.187 100.298 198.867 104.525 191.427 110.198C183.987 115.871 178.246 120.848 178.606 121.309Z" fill="white"/>
<path d="M193.234 140.23C193.595 140.696 199.914 136.469 207.354 130.796C214.794 125.123 220.536 120.147 220.176 119.686C219.815 119.22 213.496 123.446 206.056 129.119C198.616 134.793 192.874 139.769 193.234 140.23Z" fill="white"/>
<path d="M207.863 159.152C208.223 159.617 214.543 155.391 221.983 149.718C229.423 144.045 235.164 139.068 234.804 138.607C234.444 138.141 228.124 142.368 220.684 148.041C213.244 153.714 207.502 158.691 207.863 159.152Z" fill="white"/>
<path d="M222.491 178.073C222.852 178.539 229.171 174.312 236.611 168.639C244.051 162.966 249.793 157.99 249.432 157.529C249.072 157.063 242.753 161.289 235.313 166.962C227.873 172.635 222.131 177.612 222.491 178.073Z" fill="white"/>
<path d="M237.119 196.99C237.48 197.455 243.799 193.229 251.239 187.556C258.679 181.883 264.421 176.906 264.06 176.445C263.7 175.979 257.381 180.206 249.94 185.879C242.5 191.552 236.759 196.529 237.119 196.99Z" fill="white"/>
<path d="M251.748 215.911C252.108 216.377 258.427 212.15 265.867 206.477C273.307 200.804 279.049 195.828 278.689 195.367C278.328 194.901 272.009 199.127 264.569 204.8C257.129 210.473 251.387 215.45 251.748 215.911Z" fill="white"/>
<path d="M266.376 234.832C266.736 235.298 273.056 231.072 280.496 225.399C287.936 219.726 293.678 214.749 293.317 214.288C292.957 213.822 286.637 218.049 279.197 223.722C271.757 229.395 266.016 234.372 266.376 234.832Z" fill="white"/>
<path d="M281.004 253.754C281.365 254.22 287.684 249.993 295.124 244.32C302.564 238.647 308.306 233.671 307.946 233.21C307.585 232.744 301.266 236.97 293.826 242.643C286.386 248.316 280.644 253.293 281.004 253.754Z" fill="white"/>
<path d="M295.633 272.675C295.993 273.141 302.313 268.915 309.753 263.242C317.193 257.569 322.934 252.592 322.574 252.131C322.214 251.665 315.894 255.892 308.454 261.565C301.014 267.238 295.272 272.215 295.633 272.675Z" fill="white"/>
<path d="M310.261 291.597C310.622 292.063 316.941 287.836 324.381 282.163C331.821 276.49 337.563 271.513 337.202 271.053C336.842 270.587 330.523 274.813 323.083 280.486C315.643 286.159 309.901 291.136 310.261 291.597Z" fill="white"/>
<path d="M324.889 310.518C325.25 310.984 331.569 306.758 339.009 301.085C346.449 295.412 352.191 290.435 351.83 289.974C351.47 289.508 345.151 293.735 337.711 299.408C330.27 305.081 324.529 310.058 324.889 310.518Z" fill="white"/>
<path d="M339.518 329.44C339.878 329.906 346.197 325.679 353.637 320.006C361.077 314.333 366.819 309.356 366.459 308.896C366.098 308.43 359.779 312.656 352.339 318.329C344.899 324.002 339.157 328.979 339.518 329.44Z" fill="white"/>
<path d="M354.146 348.362C354.506 348.827 360.826 344.601 368.266 338.928C375.706 333.255 381.448 328.278 381.087 327.817C380.727 327.351 374.407 331.578 366.967 337.251C359.527 342.924 353.786 347.901 354.146 348.362Z" fill="white"/>
<path d="M368.774 367.278C369.135 367.744 375.454 363.517 382.894 357.844C390.334 352.171 396.076 347.194 395.716 346.733C395.355 346.268 389.036 350.494 381.596 356.167C374.156 361.84 368.414 366.817 368.774 367.278Z" fill="white"/>
<path d="M383.403 386.199C383.763 386.665 390.083 382.439 397.523 376.766C404.963 371.093 410.704 366.116 410.344 365.655C409.984 365.189 403.664 369.416 396.224 375.089C388.784 380.762 383.042 385.739 383.403 386.199Z" fill="white"/>
<path d="M398.031 405.121C398.391 405.587 404.711 401.36 412.151 395.687C419.591 390.014 425.332 385.038 424.972 384.577C424.612 384.111 418.292 388.337 410.852 394.01C403.412 399.683 397.67 404.66 398.031 405.121Z" fill="white"/>
<path d="M412.659 424.042C413.02 424.508 419.339 420.282 426.779 414.609C434.219 408.936 439.961 403.959 439.6 403.498C439.24 403.037 432.921 407.259 425.481 412.932C418.04 418.605 412.299 423.582 412.659 424.042Z" fill="white"/>
<path d="M427.288 442.964C427.648 443.43 433.967 439.203 441.407 433.53C448.847 427.857 454.589 422.88 454.229 422.419C453.868 421.954 447.549 426.18 440.109 431.853C432.669 437.526 426.927 442.503 427.288 442.964Z" fill="white"/>
<path d="M441.916 461.885C441.985 461.974 448.068 457.443 455.508 451.77C462.948 446.097 468.926 441.424 468.857 441.341C468.788 441.253 462.706 445.783 455.266 451.456C447.826 457.129 441.847 461.802 441.916 461.885Z" fill="white"/>
<path d="M57.1557 3.39134C57.5161 3.85715 63.8355 -0.369414 71.2756 -6.04243C78.7156 -11.7154 84.4573 -16.6922 84.0969 -17.1531C83.7365 -17.6189 77.4172 -13.3923 69.9771 -7.71932C62.5371 -2.0463 56.7953 2.93044 57.1557 3.39134Z" fill="white"/>
<path d="M71.7841 22.3129C72.1445 22.7787 78.4639 18.5521 85.904 12.8791C93.344 7.2061 99.0858 2.22933 98.7254 1.76842C98.365 1.30262 92.0456 5.52921 84.6055 11.2022C77.1655 16.8752 71.4237 21.852 71.7841 22.3129Z" fill="white"/>
<path d="M86.4126 41.2295C86.773 41.6953 93.0923 37.4687 100.532 31.7957C107.972 26.1227 113.714 21.1459 113.354 20.685C112.993 20.2192 106.674 24.4458 99.234 30.1188C91.7939 35.7918 86.0522 40.7686 86.4126 41.2295Z" fill="white"/>
<path d="M101.041 60.151C101.401 60.6168 107.721 56.3902 115.161 50.7172C122.601 45.0442 128.343 40.0674 127.982 39.6065C127.622 39.1407 121.302 43.3673 113.862 49.0403C106.422 54.7133 100.681 59.6901 101.041 60.151Z" fill="white"/>
<path d="M115.669 79.0724C116.03 79.5382 122.349 75.3116 129.789 69.6386C137.229 63.9656 142.971 58.9888 142.611 58.5279C142.25 58.0621 135.931 62.2887 128.491 67.9617C121.051 73.6347 115.309 78.6115 115.669 79.0724Z" fill="white"/>
<path d="M130.297 97.9939C130.658 98.4597 136.977 94.2332 144.417 88.5602C151.857 82.8872 157.599 77.9104 157.239 77.4495C156.878 76.9837 150.559 81.2103 143.119 86.8833C135.679 92.5563 129.937 97.533 130.297 97.9939Z" fill="white"/>
<path d="M144.926 116.915C145.286 117.381 151.606 113.155 159.046 107.482C166.486 101.809 172.227 96.8319 171.867 96.371C171.507 95.9052 165.187 100.132 157.747 105.805C150.307 111.478 144.565 116.455 144.926 116.915Z" fill="white"/>
<path d="M159.554 135.837C159.915 136.303 166.234 132.076 173.674 126.403C181.114 120.73 186.856 115.753 186.495 115.292C186.135 114.827 179.816 119.053 172.376 124.726C164.935 130.399 159.194 135.376 159.554 135.837Z" fill="white"/>
<path d="M174.183 154.758C174.543 155.224 180.862 150.998 188.302 145.325C195.742 139.652 201.484 134.675 201.124 134.214C200.763 133.748 194.444 137.975 187.004 143.648C179.564 149.321 173.822 154.297 174.183 154.758Z" fill="white"/>
<path d="M188.811 173.68C189.171 174.146 195.491 169.919 202.931 164.246C210.371 158.573 216.113 153.596 215.752 153.135C215.392 152.67 209.072 156.896 201.632 162.569C194.192 168.242 188.451 173.219 188.811 173.68Z" fill="white"/>
<path d="M203.439 192.601C203.799 193.067 210.119 188.841 217.559 183.168C224.999 177.495 230.741 172.518 230.38 172.057C230.02 171.591 223.7 175.818 216.26 181.491C208.82 187.164 203.079 192.14 203.439 192.601Z" fill="white"/>
<path d="M218.067 211.518C218.428 211.984 224.747 207.757 232.187 202.084C239.627 196.411 245.369 191.434 245.009 190.973C244.648 190.508 238.329 194.734 230.889 200.407C223.449 206.08 217.707 211.057 218.067 211.518Z" fill="white"/>
<path d="M232.696 230.439C233.056 230.905 239.376 226.678 246.816 221.005C254.256 215.332 259.997 210.356 259.637 209.895C259.277 209.429 252.957 213.656 245.517 219.329C238.077 225.002 232.335 229.978 232.696 230.439Z" fill="white"/>
<path d="M247.324 249.361C247.685 249.827 254.004 245.6 261.444 239.927C268.884 234.254 274.626 229.277 274.265 228.816C273.905 228.35 267.586 232.577 260.146 238.25C252.706 243.923 246.964 248.9 247.324 249.361Z" fill="white"/>
<path d="M261.953 268.282C262.313 268.748 268.632 264.521 276.072 258.848C283.512 253.175 289.254 248.199 288.894 247.738C288.533 247.272 282.214 251.499 274.774 257.172C267.334 262.845 261.592 267.821 261.953 268.282Z" fill="white"/>
<path d="M276.581 287.204C276.941 287.67 283.26 283.443 290.7 277.77C298.14 272.097 303.882 267.12 303.522 266.659C303.161 266.194 296.842 270.42 289.402 276.093C281.962 281.766 276.22 286.743 276.581 287.204Z" fill="white"/>
<path d="M291.209 306.125C291.569 306.591 297.889 302.364 305.329 296.691C312.769 291.018 318.511 286.042 318.15 285.581C317.79 285.115 311.47 289.341 304.03 295.014C296.59 300.687 290.849 305.664 291.209 306.125Z" fill="white"/>
<path d="M305.837 325.047C306.198 325.512 312.517 321.286 319.957 315.613C327.397 309.94 333.139 304.963 332.779 304.502C332.418 304.036 326.099 308.263 318.659 313.936C311.219 319.609 305.477 324.586 305.837 325.047Z" fill="white"/>
<path d="M320.466 343.968C320.826 344.434 327.146 340.207 334.586 334.534C342.026 328.861 347.767 323.885 347.407 323.424C347.047 322.958 340.727 327.185 333.287 332.858C325.847 338.531 320.105 343.507 320.466 343.968Z" fill="white"/>
<path d="M335.094 362.89C335.455 363.355 341.774 359.129 349.214 353.456C356.654 347.783 362.396 342.806 362.035 342.345C361.675 341.879 355.356 346.106 347.916 351.779C340.476 357.452 334.734 362.429 335.094 362.89Z" fill="white"/>
<path d="M349.723 381.811C350.083 382.277 356.402 378.05 363.842 372.377C371.282 366.704 377.024 361.728 376.664 361.267C376.303 360.801 369.984 365.027 362.544 370.7C355.104 376.373 349.362 381.35 349.723 381.811Z" fill="white"/>
<path d="M364.351 400.728C364.711 401.194 371.03 396.967 378.47 391.294C385.91 385.621 391.652 380.644 391.292 380.183C390.931 379.718 384.612 383.944 377.172 389.617C369.732 395.29 363.99 400.267 364.351 400.728Z" fill="white"/>
<path d="M378.979 419.649C379.339 420.115 385.659 415.889 393.099 410.216C400.539 404.542 406.281 399.566 405.92 399.105C405.56 398.639 399.24 402.866 391.8 408.539C384.36 414.212 378.619 419.188 378.979 419.649Z" fill="white"/>
<path d="M393.607 438.571C393.968 439.037 400.287 434.81 407.727 429.137C415.167 423.464 420.909 418.487 420.549 418.026C420.188 417.56 413.869 421.787 406.429 427.46C398.989 433.133 393.247 438.11 393.607 438.571Z" fill="white"/>
<path d="M408.236 457.492C408.438 457.752 414.634 453.364 422.074 447.691C429.514 442.018 435.384 437.208 435.182 436.948C434.979 436.688 428.783 441.076 421.343 446.749C413.903 452.422 408.033 457.232 408.236 457.492Z" fill="white"/>
<path d="M38.104 17.9196C38.4644 18.3854 44.7837 14.1588 52.2238 8.4858C59.6639 2.81279 65.4056 -2.16395 65.0452 -2.62486C64.6848 -3.09066 58.3654 1.1359 50.9254 6.80891C43.4853 12.4819 37.7436 17.4587 38.104 17.9196Z" fill="white"/>
<path d="M52.7324 36.8411C53.0928 37.3069 59.4122 33.0804 66.8522 27.4074C74.2923 21.7344 80.034 16.7576 79.6736 16.2967C79.3132 15.8309 72.9938 20.0574 65.5538 25.7305C58.1137 31.4035 52.372 36.3802 52.7324 36.8411Z" fill="white"/>
<path d="M67.3608 55.7577C67.7212 56.2235 74.0406 51.9969 81.4806 46.3239C88.9207 40.6509 94.6624 35.6742 94.302 35.2132C93.9416 34.7474 87.6223 38.974 80.1822 44.647C72.7421 50.32 67.0004 55.2968 67.3608 55.7577Z" fill="white"/>
<path d="M81.9887 74.6791C82.3491 75.1449 88.6685 70.9183 96.1086 65.2453C103.549 59.5723 109.29 54.5956 108.93 54.1347C108.57 53.6689 102.25 57.8954 94.8101 63.5684C87.3701 69.2414 81.6283 74.2182 81.9887 74.6791Z" fill="white"/>
<path d="M96.6172 93.6007C96.9776 94.0665 103.297 89.8399 110.737 84.1669C118.177 78.4939 123.919 73.5171 123.558 73.0562C123.198 72.5904 116.879 76.817 109.439 82.49C101.998 88.163 96.2568 93.1398 96.6172 93.6007Z" fill="white"/>
<path d="M111.246 112.522C111.606 112.988 117.925 108.761 125.365 103.088C132.805 97.4154 138.547 92.4386 138.187 91.9777C137.826 91.5119 131.507 95.7385 124.067 101.411C116.627 107.084 110.885 112.061 111.246 112.522Z" fill="white"/>
<path d="M125.874 131.444C126.234 131.909 132.554 127.683 139.994 122.01C147.434 116.337 153.176 111.36 152.815 110.899C152.455 110.433 146.135 114.66 138.695 120.333C131.255 126.006 125.514 130.983 125.874 131.444Z" fill="white"/>
<path d="M140.502 150.365C140.863 150.831 147.182 146.604 154.622 140.931C162.062 135.258 167.804 130.282 167.444 129.821C167.083 129.355 160.764 133.581 153.324 139.254C145.884 144.927 140.142 149.904 140.502 150.365Z" fill="white"/>
<path d="M155.131 169.287C155.491 169.752 161.811 165.526 169.251 159.853C176.691 154.18 182.432 149.203 182.072 148.742C181.712 148.276 175.392 152.503 167.952 158.176C160.512 163.849 154.77 168.826 155.131 169.287Z" fill="white"/>
<path d="M169.759 188.208C170.119 188.674 176.439 184.447 183.879 178.774C191.319 173.101 197.06 168.125 196.7 167.664C196.34 167.198 190.02 171.424 182.58 177.097C175.14 182.77 169.398 187.747 169.759 188.208Z" fill="white"/>
<path d="M184.387 207.129C184.748 207.595 191.067 203.369 198.507 197.696C205.947 192.023 211.689 187.046 211.328 186.585C210.968 186.119 204.649 190.346 197.209 196.019C189.769 201.692 184.027 206.668 184.387 207.129Z" fill="white"/>
<path d="M199.016 226.046C199.376 226.512 205.695 222.285 213.135 216.612C220.575 210.939 226.317 205.963 225.957 205.502C225.596 205.036 219.277 209.262 211.837 214.935C204.397 220.608 198.655 225.585 199.016 226.046Z" fill="white"/>
<path d="M213.644 244.968C214.004 245.433 220.324 241.207 227.764 235.534C235.204 229.861 240.946 224.884 240.585 224.423C240.225 223.957 233.905 228.184 226.465 233.857C219.025 239.53 213.284 244.507 213.644 244.968Z" fill="white"/>
<path d="M228.272 263.889C228.633 264.355 234.952 260.128 242.392 254.455C249.832 248.782 255.574 243.805 255.214 243.344C254.853 242.879 248.534 247.105 241.094 252.778C233.654 258.451 227.912 263.428 228.272 263.889Z" fill="white"/>
<path d="M242.9 282.81C243.261 283.276 249.58 279.05 257.02 273.377C264.46 267.704 270.202 262.727 269.842 262.266C269.481 261.8 263.162 266.027 255.722 271.7C248.282 277.373 242.54 282.35 242.9 282.81Z" fill="white"/>
<path d="M257.529 301.732C257.889 302.198 264.209 297.971 271.649 292.298C279.089 286.625 284.83 281.648 284.47 281.187C284.11 280.722 277.79 284.948 270.35 290.621C262.91 296.294 257.168 301.271 257.529 301.732Z" fill="white"/>
<path d="M272.157 320.653C272.518 321.119 278.837 316.893 286.277 311.22C293.717 305.547 299.459 300.57 299.098 300.109C298.738 299.643 292.419 303.87 284.979 309.543C277.539 315.216 271.797 320.192 272.157 320.653Z" fill="white"/>
<path d="M286.786 339.575C287.146 340.041 293.465 335.814 300.905 330.141C308.345 324.468 314.087 319.491 313.727 319.03C313.366 318.565 307.047 322.791 299.607 328.464C292.167 334.137 286.425 339.114 286.786 339.575Z" fill="white"/>
<path d="M301.414 358.496C301.774 358.962 308.094 354.736 315.534 349.063C322.974 343.39 328.716 338.413 328.355 337.952C327.995 337.486 321.675 341.713 314.235 347.386C306.795 353.059 301.054 358.035 301.414 358.496Z" fill="white"/>
<path d="M316.042 377.418C316.403 377.884 322.722 373.657 330.162 367.984C337.602 362.311 343.344 357.334 342.984 356.873C342.623 356.408 336.304 360.634 328.864 366.307C321.424 371.98 315.682 376.957 316.042 377.418Z" fill="white"/>
<path d="M330.67 396.339C331.031 396.805 337.35 392.579 344.79 386.906C352.23 381.233 357.972 376.256 357.612 375.795C357.251 375.329 350.932 379.556 343.492 385.229C336.052 390.902 330.31 395.878 330.67 396.339Z" fill="white"/>
<path d="M345.299 415.256C345.659 415.722 351.979 411.495 359.419 405.822C366.859 400.149 372.6 395.172 372.24 394.711C371.88 394.246 365.56 398.472 358.12 404.145C350.68 409.818 344.938 414.795 345.299 415.256Z" fill="white"/>
<path d="M359.927 434.178C360.288 434.643 366.607 430.417 374.047 424.744C381.487 419.071 387.229 414.094 386.868 413.633C386.508 413.167 380.189 417.394 372.749 423.067C365.309 428.74 359.567 433.717 359.927 434.178Z" fill="white"/>
<path d="M374.556 453.099C374.822 453.447 381.072 449.127 388.512 443.454C395.952 437.781 401.768 432.898 401.497 432.55C401.23 432.201 394.98 436.521 387.54 442.194C380.1 447.867 374.284 452.751 374.556 453.099Z" fill="white"/>
<path d="M4.4239 13.5263C4.44859 13.5558 10.4964 8.98106 17.9365 3.30805C25.3765 -2.36496 31.3898 -6.98869 31.3651 -7.01811C31.3404 -7.04753 25.2926 -2.47282 17.8525 3.20019C10.4125 8.8732 4.39922 13.4969 4.4239 13.5263Z" fill="white"/>
<path d="M19.052 32.4478C19.3433 32.8253 25.6084 28.5301 33.0484 22.8571C40.4885 17.1841 46.2845 12.2809 45.9932 11.9033C45.702 11.5258 39.4369 15.821 31.9968 21.494C24.5568 27.167 18.7607 32.0702 19.052 32.4478Z" fill="white"/>
<path d="M33.6801 51.3693C34.0405 51.8351 40.3599 47.6086 47.8 41.9356C55.24 36.2626 60.9818 31.2858 60.6214 30.8249C60.261 30.3591 53.9416 34.5856 46.5015 40.2587C39.0615 45.9317 33.3197 50.9084 33.6801 51.3693Z" fill="white"/>
<path d="M48.3086 70.2859C48.669 70.7517 54.9883 66.5251 62.4284 60.8521C69.8684 55.1791 75.6102 50.2023 75.2498 49.7414C74.8894 49.2756 68.57 53.5022 61.13 59.1752C53.6899 64.8482 47.9482 69.825 48.3086 70.2859Z" fill="white"/>
<path d="M62.937 89.2074C63.2974 89.6732 69.6167 85.4466 77.0568 79.7736C84.4969 74.1006 90.2386 69.1238 89.8782 68.6629C89.5178 68.1971 83.1984 72.4237 75.7584 78.0967C68.3183 83.7697 62.5766 88.7465 62.937 89.2074Z" fill="white"/>
<path d="M77.5654 108.129C77.9258 108.595 84.2452 104.368 91.6852 98.6951C99.1253 93.0221 104.867 88.0453 104.507 87.5844C104.146 87.1186 97.8268 91.3452 90.3868 97.0182C82.9467 102.691 77.205 107.668 77.5654 108.129Z" fill="white"/>
<path d="M92.1938 127.05C92.5542 127.516 98.8736 123.29 106.314 117.617C113.754 111.944 119.495 106.967 119.135 106.506C118.775 106.04 112.455 110.267 105.015 115.94C97.5751 121.613 91.8334 126.589 92.1938 127.05Z" fill="white"/>
<path d="M106.822 145.972C107.183 146.438 113.502 142.211 120.942 136.538C128.382 130.865 134.124 125.888 133.763 125.427C133.403 124.962 127.084 129.188 119.644 134.861C112.204 140.534 106.462 145.511 106.822 145.972Z" fill="white"/>
<path d="M121.45 164.893C121.811 165.359 128.13 161.133 135.57 155.46C143.01 149.787 148.752 144.81 148.391 144.349C148.031 143.883 141.712 148.11 134.272 153.783C126.831 159.456 121.09 164.432 121.45 164.893Z" fill="white"/>
<path d="M136.079 183.815C136.439 184.281 142.758 180.054 150.198 174.381C157.638 168.708 163.38 163.731 163.02 163.27C162.659 162.804 156.34 167.031 148.9 172.704C141.46 178.377 135.718 183.354 136.079 183.815Z" fill="white"/>
<path d="M150.707 202.736C151.067 203.202 157.387 198.975 164.827 193.302C172.267 187.629 178.009 182.653 177.648 182.192C177.288 181.726 170.968 185.952 163.528 191.625C156.088 197.298 150.347 202.275 150.707 202.736Z" fill="white"/>
<path d="M165.335 221.658C165.696 222.123 172.015 217.897 179.455 212.224C186.895 206.551 192.637 201.574 192.277 201.113C191.916 200.647 185.597 204.874 178.157 210.547C170.717 216.22 164.975 221.197 165.335 221.658Z" fill="white"/>
<path d="M179.964 240.574C180.324 241.04 186.644 236.814 194.084 231.14C201.524 225.467 207.265 220.491 206.905 220.03C206.545 219.564 200.225 223.791 192.785 229.464C185.345 235.137 179.603 240.113 179.964 240.574Z" fill="white"/>
<path d="M194.592 259.496C194.952 259.962 201.272 255.735 208.712 250.062C216.152 244.389 221.893 239.412 221.533 238.951C221.173 238.485 214.853 242.712 207.413 248.385C199.973 254.058 194.231 259.035 194.592 259.496Z" fill="white"/>
<path d="M209.22 278.417C209.581 278.883 215.9 274.656 223.34 268.983C230.78 263.31 236.522 258.334 236.161 257.873C235.801 257.407 229.482 261.633 222.042 267.306C214.602 272.979 208.86 277.956 209.22 278.417Z" fill="white"/>
<path d="M223.849 297.339C224.209 297.804 230.528 293.578 237.968 287.905C245.408 282.232 251.15 277.255 250.79 276.794C250.429 276.328 244.11 280.555 236.67 286.228C229.23 291.901 223.488 296.878 223.849 297.339Z" fill="white"/>
<path d="M238.477 316.26C238.837 316.726 245.157 312.499 252.597 306.826C260.037 301.153 265.779 296.177 265.418 295.716C265.058 295.25 258.738 299.476 251.298 305.149C243.858 310.823 238.117 315.799 238.477 316.26Z" fill="white"/>
<path d="M253.105 335.182C253.466 335.647 259.785 331.421 267.225 325.748C274.665 320.075 280.407 315.098 280.047 314.637C279.686 314.171 273.367 318.398 265.927 324.071C258.487 329.744 252.745 334.721 253.105 335.182Z" fill="white"/>
<path d="M267.734 354.103C268.094 354.569 274.414 350.342 281.854 344.669C289.294 338.996 295.035 334.02 294.675 333.559C294.315 333.093 287.995 337.319 280.555 342.992C273.115 348.665 267.373 353.642 267.734 354.103Z" fill="white"/>
<path d="M282.362 373.025C282.722 373.49 289.042 369.264 296.482 363.591C303.922 357.918 309.663 352.941 309.303 352.48C308.943 352.014 302.623 356.241 295.183 361.914C287.743 367.587 282.001 372.564 282.362 373.025Z" fill="white"/>
<path d="M296.99 391.946C297.351 392.412 303.67 388.185 311.11 382.512C318.55 376.839 324.292 371.862 323.931 371.402C323.571 370.936 317.252 375.162 309.812 380.835C302.372 386.508 296.63 391.485 296.99 391.946Z" fill="white"/>
<path d="M311.619 410.868C311.979 411.333 318.298 407.107 325.738 401.434C333.178 395.761 338.92 390.784 338.56 390.323C338.199 389.857 331.88 394.084 324.44 399.757C317 405.43 311.258 410.407 311.619 410.868Z" fill="white"/>
<path d="M326.247 429.784C326.607 430.25 332.927 426.023 340.367 420.35C347.807 414.677 353.549 409.701 353.188 409.24C352.828 408.774 346.508 413.001 339.068 418.674C331.628 424.347 325.887 429.323 326.247 429.784Z" fill="white"/>
<path d="M340.875 448.706C341.167 449.083 347.432 444.788 354.872 439.115C362.312 433.442 368.108 428.539 367.816 428.161C367.525 427.784 361.26 432.079 353.82 437.752C346.38 443.425 340.584 448.328 340.875 448.706Z" fill="white"/>
<path d="M355.503 467.627C355.528 467.657 361.576 463.082 369.016 457.409C376.456 451.736 382.469 447.112 382.445 447.083C382.42 447.053 376.372 451.628 368.932 457.301C361.492 462.974 355.479 467.598 355.503 467.627Z" fill="white"/>
<path d="M7.57293e-05 46.976C0.0247607 47.0054 6.07259 42.4308 13.5126 36.7578C20.9527 31.0847 26.966 26.461 26.9413 26.4316C26.9166 26.4022 20.8688 30.9769 13.4287 36.6499C5.98866 42.3229 -0.0246093 46.9466 7.57293e-05 46.976Z" fill="white"/>
<path d="M14.6283 65.8975C14.8949 66.2457 21.1451 61.9259 28.5852 56.2529C36.0252 50.5799 41.841 45.6963 41.5695 45.3482C41.3029 45 35.0526 49.3198 27.6126 54.9928C20.1725 60.6658 14.3567 65.5494 14.6283 65.8975Z" fill="white"/>
<path d="M29.2568 84.8141C29.6172 85.2799 35.9366 81.0534 43.3766 75.3804C50.8167 69.7074 56.5584 64.7306 56.198 64.2697C55.8376 63.8039 49.5183 68.0305 42.0782 73.7035C34.6381 79.3765 28.8964 84.3532 29.2568 84.8141Z" fill="white"/>
<path d="M43.8852 103.736C44.2456 104.201 50.565 99.9748 58.005 94.3018C65.4451 88.6288 71.1868 83.652 70.8264 83.1911C70.466 82.7253 64.1467 86.9519 56.7066 92.6249C49.2666 98.2979 43.5248 103.275 43.8852 103.736Z" fill="white"/>
<path d="M58.5136 122.657C58.874 123.123 65.1934 118.896 72.6335 113.223C80.0735 107.55 85.8153 102.574 85.4549 102.113C85.0945 101.647 78.7751 105.873 71.335 111.546C63.895 117.219 58.1532 122.196 58.5136 122.657Z" fill="white"/>
<path d="M73.1421 141.579C73.5025 142.044 79.8218 137.818 87.2619 132.145C94.7019 126.472 100.444 121.495 100.083 121.034C99.7229 120.568 93.4035 124.795 85.9634 130.468C78.5234 136.141 72.7817 141.118 73.1421 141.579Z" fill="white"/>
<path d="M87.77 160.5C88.1304 160.966 94.4498 156.739 101.89 151.066C109.33 145.393 115.072 140.416 114.711 139.956C114.351 139.49 108.031 143.716 100.591 149.389C93.1513 155.062 87.4096 160.039 87.77 160.5Z" fill="white"/>
<path d="M102.398 179.421C102.759 179.887 109.078 175.661 116.518 169.988C123.958 164.315 129.7 159.338 129.34 158.877C128.979 158.411 122.66 162.638 115.22 168.311C107.78 173.984 102.038 178.961 102.398 179.421Z" fill="white"/>
<path d="M117.027 198.343C117.387 198.809 123.707 194.582 131.147 188.909C138.587 183.236 144.328 178.259 143.968 177.798C143.608 177.333 137.288 181.559 129.848 187.232C122.408 192.905 116.666 197.882 117.027 198.343Z" fill="white"/>
<path d="M131.655 217.264C132.016 217.73 138.335 213.504 145.775 207.831C153.215 202.158 158.957 197.181 158.596 196.72C158.236 196.254 151.917 200.481 144.477 206.154C137.037 211.827 131.295 216.804 131.655 217.264Z" fill="white"/>
<path d="M146.284 236.186C146.644 236.652 152.963 232.425 160.403 226.752C167.844 221.079 173.585 216.102 173.225 215.641C172.864 215.176 166.545 219.402 159.105 225.075C151.665 230.748 145.923 235.725 146.284 236.186Z" fill="white"/>
<path d="M160.912 255.107C161.272 255.573 167.591 251.346 175.031 245.673C182.471 240 188.213 235.024 187.853 234.563C187.492 234.097 181.173 238.324 173.733 243.997C166.293 249.67 160.551 254.646 160.912 255.107Z" fill="white"/>
<path d="M175.54 274.024C175.9 274.49 182.22 270.263 189.66 264.59C197.1 258.917 202.842 253.94 202.481 253.48C202.121 253.014 195.801 257.24 188.361 262.913C180.921 268.586 175.18 273.563 175.54 274.024Z" fill="white"/>
<path d="M190.168 292.945C190.529 293.411 196.848 289.185 204.288 283.512C211.728 277.839 217.47 272.862 217.11 272.401C216.749 271.935 210.43 276.162 202.99 281.835C195.55 287.508 189.808 292.484 190.168 292.945Z" fill="white"/>
<path d="M204.797 311.867C205.157 312.333 211.477 308.106 218.917 302.433C226.357 296.76 232.098 291.783 231.738 291.322C231.378 290.857 225.058 295.083 217.618 300.756C210.178 306.429 204.436 311.406 204.797 311.867Z" fill="white"/>
<path d="M219.425 330.788C219.786 331.254 226.105 327.028 233.545 321.355C240.985 315.682 246.727 310.705 246.366 310.244C246.006 309.778 239.687 314.005 232.247 319.678C224.807 325.351 219.065 330.327 219.425 330.788Z" fill="white"/>
<path d="M234.053 349.71C234.414 350.176 240.733 345.949 248.173 340.276C255.613 334.603 261.355 329.626 260.994 329.165C260.634 328.7 254.315 332.926 246.875 338.599C239.435 344.272 233.693 349.249 234.053 349.71Z" fill="white"/>
<path d="M248.682 368.631C249.042 369.097 255.361 364.871 262.801 359.198C270.241 353.525 275.983 348.548 275.623 348.087C275.262 347.621 268.943 351.848 261.503 357.521C254.063 363.194 248.321 368.17 248.682 368.631Z" fill="white"/>
<path d="M263.31 387.553C263.67 388.019 269.99 383.792 277.43 378.119C284.87 372.446 290.612 367.469 290.251 367.008C289.891 366.543 283.571 370.769 276.131 376.442C268.691 382.115 262.95 387.092 263.31 387.553Z" fill="white"/>
<path d="M277.938 406.474C278.299 406.94 284.618 402.713 292.058 397.04C299.498 391.367 305.24 386.391 304.88 385.93C304.519 385.469 298.2 389.691 290.76 395.364C283.32 401.037 277.578 406.013 277.938 406.474Z" fill="white"/>
<path d="M292.567 425.396C292.927 425.862 299.247 421.635 306.687 415.962C314.127 410.289 319.868 405.312 319.508 404.851C319.148 404.385 312.828 408.612 305.388 414.285C297.948 419.958 292.206 424.935 292.567 425.396Z" fill="white"/>
<path d="M307.195 444.312C307.462 444.66 313.712 440.341 321.152 434.668C328.592 428.995 334.408 424.111 334.136 423.763C333.87 423.415 327.62 427.735 320.18 433.408C312.739 439.081 306.924 443.964 307.195 444.312Z" fill="white"/>
<path d="M321.823 463.234C321.848 463.263 327.896 458.689 335.336 453.016C342.776 447.342 348.789 442.719 348.765 442.689C348.74 442.66 342.692 447.235 335.252 452.908C327.812 458.581 321.799 463.204 321.823 463.234Z" fill="white"/>
<path d="M10.2048 99.3472C10.4072 99.607 16.6031 95.2187 24.0432 89.5457C31.4833 83.8727 37.3534 79.0626 37.1509 78.8027C36.9485 78.5429 30.7526 82.9312 23.3125 88.6043C15.8725 94.2773 10.0024 99.0873 10.2048 99.3472Z" fill="white"/>
<path d="M24.8335 118.264C25.1939 118.73 31.5132 114.503 38.9533 108.83C46.3934 103.157 52.1351 98.1802 51.7747 97.7193C51.4143 97.2535 45.0949 101.48 37.6549 107.153C30.2148 112.826 24.4731 117.803 24.8335 118.264Z" fill="white"/>
<path d="M39.4614 137.185C39.8218 137.651 46.1412 133.425 53.5812 127.752C61.0213 122.079 66.763 117.102 66.4026 116.641C66.0422 116.175 59.7228 120.402 52.2828 126.075C44.8427 131.748 39.101 136.724 39.4614 137.185Z" fill="white"/>
<path d="M54.0898 156.107C54.4502 156.573 60.7696 152.346 68.2096 146.673C75.6497 141 81.3914 136.023 81.031 135.562C80.6706 135.097 74.3513 139.323 66.9112 144.996C59.4711 150.669 53.7294 155.646 54.0898 156.107Z" fill="white"/>
<path d="M68.7182 175.028C69.0786 175.494 75.398 171.267 82.838 165.594C90.2781 159.921 96.0198 154.945 95.6594 154.484C95.299 154.018 88.9797 158.244 81.5396 163.917C74.0996 169.591 68.3578 174.567 68.7182 175.028Z" fill="white"/>
<path d="M83.3466 193.95C83.707 194.415 90.0264 190.189 97.4665 184.516C104.907 178.843 110.648 173.866 110.288 173.405C109.927 172.939 103.608 177.166 96.168 182.839C88.728 188.512 82.9862 193.489 83.3466 193.95Z" fill="white"/>
<path d="M97.9751 212.871C98.3355 213.337 104.655 209.11 112.095 203.437C119.535 197.764 125.277 192.788 124.916 192.327C124.556 191.861 118.237 196.087 110.796 201.76C103.356 207.433 97.6147 212.41 97.9751 212.871Z" fill="white"/>
<path d="M112.603 231.793C112.963 232.258 119.283 228.032 126.723 222.359C134.163 216.686 139.905 211.709 139.544 211.248C139.184 210.782 132.864 215.009 125.424 220.682C117.984 226.355 112.243 231.332 112.603 231.793Z" fill="white"/>
<path d="M127.231 250.714C127.592 251.18 133.911 246.953 141.351 241.28C148.791 235.607 154.533 230.63 154.173 230.17C153.812 229.704 147.493 233.93 140.053 239.603C132.613 245.276 126.871 250.253 127.231 250.714Z" fill="white"/>
<path d="M141.86 269.635C142.22 270.101 148.54 265.875 155.98 260.202C163.42 254.529 169.161 249.552 168.801 249.091C168.441 248.625 162.121 252.852 154.681 258.525C147.241 264.198 141.499 269.175 141.86 269.635Z" fill="white"/>
<path d="M156.488 288.552C156.849 289.018 163.168 284.791 170.608 279.118C178.048 273.445 183.79 268.468 183.429 268.008C183.069 267.542 176.75 271.768 169.31 277.441C161.87 283.114 156.128 288.091 156.488 288.552Z" fill="white"/>
<path d="M171.117 307.474C171.477 307.939 177.796 303.713 185.236 298.04C192.677 292.367 198.418 287.39 198.058 286.929C197.697 286.463 191.378 290.69 183.938 296.363C176.498 302.036 170.756 307.013 171.117 307.474Z" fill="white"/>
<path d="M185.745 326.395C186.105 326.861 192.425 322.634 199.865 316.961C207.305 311.288 213.047 306.312 212.686 305.851C212.326 305.385 206.007 309.611 198.566 315.284C191.126 320.958 185.385 325.934 185.745 326.395Z" fill="white"/>
<path d="M200.373 345.317C200.733 345.782 207.053 341.556 214.493 335.883C221.933 330.21 227.675 325.233 227.314 324.772C226.954 324.306 220.634 328.533 213.194 334.206C205.754 339.879 200.013 344.856 200.373 345.317Z" fill="white"/>
<path d="M215.001 364.238C215.362 364.704 221.681 360.477 229.121 354.804C236.561 349.131 242.303 344.154 241.943 343.694C241.582 343.228 235.263 347.454 227.823 353.127C220.383 358.8 214.641 363.777 215.001 364.238Z" fill="white"/>
<path d="M229.63 383.16C229.99 383.625 236.31 379.399 243.75 373.726C251.19 368.053 256.931 363.076 256.571 362.615C256.211 362.149 249.891 366.376 242.451 372.049C235.011 377.722 229.269 382.699 229.63 383.16Z" fill="white"/>
<path d="M244.258 402.081C244.619 402.547 250.938 398.32 258.378 392.647C265.818 386.974 271.56 381.997 271.199 381.537C270.839 381.071 264.52 385.297 257.08 390.97C249.64 396.643 243.898 401.62 244.258 402.081Z" fill="white"/>
<path d="M258.887 421.002C259.247 421.468 265.566 417.242 273.006 411.569C280.447 405.896 286.188 400.919 285.828 400.458C285.468 399.992 279.148 404.219 271.708 409.892C264.268 415.565 258.526 420.541 258.887 421.002Z" fill="white"/>
<path d="M273.515 439.924C273.717 440.184 279.913 435.796 287.353 430.123C294.793 424.45 300.663 419.639 300.461 419.38C300.259 419.12 294.063 423.508 286.623 429.181C279.183 434.854 273.312 439.664 273.515 439.924Z" fill="white"/>
<path d="M5.78136 132.792C5.85047 132.88 11.9329 128.35 19.3729 122.677C26.813 117.004 32.7917 112.331 32.7226 112.248C32.6535 112.159 26.5711 116.69 19.131 122.363C11.6909 128.036 5.71224 132.709 5.78136 132.792Z" fill="white"/>
<path d="M20.4099 151.713C20.6568 152.032 26.8872 147.693 34.3273 142.02C41.7674 136.347 47.598 131.488 47.3511 131.169C47.1043 130.85 40.8738 135.19 33.4337 140.863C25.9937 146.536 20.1631 151.395 20.4099 151.713Z" fill="white"/>
<path d="M35.0381 170.635C35.3985 171.101 41.7178 166.874 49.1579 161.201C56.5979 155.528 62.3397 150.551 61.9793 150.091C61.6189 149.625 55.2995 153.851 47.8594 159.524C40.4194 165.197 34.6777 170.174 35.0381 170.635Z" fill="white"/>
<path d="M49.6665 189.556C50.0269 190.022 56.3462 185.796 63.7863 180.123C71.2264 174.45 76.9681 169.473 76.6077 169.012C76.2473 168.546 69.9279 172.773 62.4879 178.446C55.0478 184.119 49.3061 189.096 49.6665 189.556Z" fill="white"/>
<path d="M64.2949 208.478C64.6553 208.944 70.9747 204.717 78.4147 199.044C85.8548 193.371 91.5965 188.394 91.2361 187.933C90.8757 187.468 84.5563 191.694 77.1163 197.367C69.6762 203.04 63.9345 208.017 64.2949 208.478Z" fill="white"/>
<path d="M78.9228 227.399C79.2832 227.865 85.6026 223.638 93.0426 217.965C100.483 212.292 106.224 207.316 105.864 206.855C105.504 206.389 99.1843 210.616 91.7442 216.289C84.3042 221.962 78.5624 226.938 78.9228 227.399Z" fill="white"/>
<path d="M93.5512 246.321C93.9116 246.787 100.231 242.56 107.671 236.887C115.111 231.214 120.853 226.237 120.492 225.776C120.132 225.311 113.813 229.537 106.373 235.21C98.9326 240.883 93.1908 245.86 93.5512 246.321Z" fill="white"/>
<path d="M108.18 265.242C108.54 265.708 114.859 261.482 122.299 255.809C129.74 250.136 135.481 245.159 135.121 244.698C134.76 244.232 128.441 248.459 121.001 254.132C113.561 259.805 107.819 264.781 108.18 265.242Z" fill="white"/>
<path d="M122.808 284.164C123.168 284.629 129.488 280.403 136.928 274.73C144.368 269.057 150.11 264.08 149.749 263.619C149.389 263.153 143.07 267.38 135.629 273.053C128.189 278.726 122.448 283.703 122.808 284.164Z" fill="white"/>
<path d="M137.436 303.08C137.797 303.546 144.116 299.32 151.556 293.647C158.996 287.974 164.738 282.997 164.378 282.536C164.017 282.075 157.698 286.297 150.258 291.97C142.818 297.643 137.076 302.619 137.436 303.08Z" fill="white"/>
<path d="M152.065 322.002C152.425 322.468 158.745 318.241 166.185 312.568C173.625 306.895 179.367 301.918 179.006 301.457C178.646 300.992 172.326 305.218 164.886 310.891C157.446 316.564 151.705 321.541 152.065 322.002Z" fill="white"/>
<path d="M166.698 340.923C167.058 341.389 173.377 337.163 180.818 331.49C188.258 325.817 193.999 320.84 193.639 320.379C193.279 319.913 186.959 324.14 179.519 329.813C172.079 335.486 166.337 340.462 166.698 340.923Z" fill="white"/>
<path d="M181.326 359.845C181.687 360.311 188.006 356.084 195.446 350.411C202.886 344.738 208.628 339.761 208.267 339.3C207.907 338.835 201.588 343.061 194.148 348.734C186.707 354.407 180.966 359.384 181.326 359.845Z" fill="white"/>
<path d="M195.955 378.766C196.315 379.232 202.634 375.005 210.074 369.332C217.514 363.659 223.256 358.683 222.896 358.222C222.535 357.756 216.216 361.982 208.776 367.655C201.336 373.328 195.594 378.305 195.955 378.766Z" fill="white"/>
<path d="M210.583 397.688C210.943 398.154 217.263 393.927 224.703 388.254C232.143 382.581 237.885 377.604 237.524 377.143C237.164 376.678 230.844 380.904 223.404 386.577C215.964 392.25 210.223 397.227 210.583 397.688Z" fill="white"/>
<path d="M225.211 416.609C225.458 416.928 231.689 412.588 239.129 406.915C246.569 401.242 252.399 396.383 252.152 396.065C251.906 395.746 245.675 400.085 238.235 405.758C230.795 411.431 224.964 416.29 225.211 416.609Z" fill="white"/>
<path d="M239.839 435.531C239.909 435.619 245.991 431.088 253.431 425.415C260.871 419.742 266.85 415.07 266.781 414.986C266.712 414.898 260.629 419.429 253.189 425.102C245.749 430.775 239.77 435.447 239.839 435.531Z" fill="white"/>
<path d="M15.9861 185.163C16.0305 185.222 22.0981 180.667 29.5382 174.994C36.9782 169.321 42.9717 164.673 42.9273 164.614C42.8829 164.555 36.8153 169.11 29.3752 174.783C21.9352 180.456 15.9417 185.104 15.9861 185.163Z" fill="white"/>
<path d="M30.6143 204.084C30.792 204.315 36.9682 199.907 44.4083 194.229C51.8483 188.556 57.7332 183.766 57.5555 183.535C57.3778 183.305 51.2016 187.713 43.7615 193.391C36.3214 199.064 30.4365 203.854 30.6143 204.084Z" fill="white"/>
<path d="M45.2429 223.006C45.5342 223.384 51.7993 219.088 59.2393 213.415C66.6794 207.742 72.4754 202.839 72.1842 202.462C71.8929 202.084 65.6278 206.379 58.1878 212.052C50.7477 217.725 44.9517 222.628 45.2429 223.006Z" fill="white"/>
<path d="M59.8711 241.927C60.2315 242.393 66.5508 238.167 73.9909 232.494C81.4309 226.821 87.1727 221.844 86.8123 221.383C86.4519 220.917 80.1325 225.144 72.6925 230.817C65.2524 236.49 59.5107 241.467 59.8711 241.927Z" fill="white"/>
<path d="M74.4995 260.849C74.8599 261.315 81.1792 257.088 88.6193 251.415C96.0594 245.742 101.801 240.765 101.441 240.304C101.08 239.844 94.7609 244.065 87.3209 249.738C79.8808 255.411 74.1391 260.388 74.4995 260.849Z" fill="white"/>
<path d="M89.1328 279.77C89.4932 280.236 95.8125 276.01 103.253 270.337C110.693 264.664 116.434 259.687 116.074 259.226C115.714 258.76 109.394 262.987 101.954 268.66C94.5141 274.333 88.7724 279.31 89.1328 279.77Z" fill="white"/>
<path d="M103.761 298.692C104.122 299.158 110.441 294.931 117.881 289.258C125.321 283.585 131.063 278.608 130.702 278.147C130.342 277.682 124.023 281.908 116.583 287.581C109.143 293.254 103.401 298.231 103.761 298.692Z" fill="white"/>
<path d="M118.389 317.609C118.75 318.074 125.069 313.848 132.509 308.175C139.949 302.502 145.691 297.525 145.33 297.064C144.97 296.598 138.651 300.825 131.211 306.498C123.77 312.171 118.029 317.148 118.389 317.609Z" fill="white"/>
<path d="M133.018 336.53C133.378 336.996 139.697 332.769 147.137 327.096C154.577 321.423 160.319 316.446 159.959 315.985C159.598 315.52 153.279 319.746 145.839 325.419C138.399 331.092 132.657 336.069 133.018 336.53Z" fill="white"/>
<path d="M147.646 355.451C148.006 355.917 154.326 351.691 161.766 346.018C169.206 340.345 174.948 335.368 174.587 334.907C174.227 334.441 167.907 338.668 160.467 344.341C153.027 350.014 147.286 354.991 147.646 355.451Z" fill="white"/>
<path d="M162.274 374.373C162.565 374.751 168.831 370.455 176.271 364.782C183.711 359.109 189.507 354.206 189.215 353.829C188.924 353.451 182.659 357.746 175.219 363.419C167.779 369.092 161.983 373.995 162.274 374.373Z" fill="white"/>
<path d="M176.903 393.294C177.081 393.525 183.257 389.117 190.697 383.439C198.137 377.766 204.022 372.98 203.844 372.745C203.666 372.515 197.49 376.923 190.05 382.601C182.61 388.274 176.725 393.059 176.903 393.294Z" fill="white"/>
<path d="M191.531 412.216C191.6 412.304 197.682 407.774 205.122 402.101C212.562 396.428 218.541 391.755 218.472 391.672C218.403 391.583 212.321 396.114 204.881 401.787C197.44 407.46 191.462 412.133 191.531 412.216Z" fill="white"/>
<path d="M40.8243 256.456C40.849 256.485 46.8968 251.91 54.3369 246.237C61.7769 240.564 67.7902 235.941 67.7655 235.911C67.7408 235.882 61.693 240.457 54.2529 246.13C46.8129 251.803 40.7996 256.426 40.8243 256.456Z" fill="white"/>
<path d="M55.4523 275.377C55.5214 275.465 61.6038 270.935 69.0438 265.262C76.4839 259.589 82.4626 254.916 82.3935 254.833C82.3244 254.744 76.242 259.275 68.8019 264.948C61.3618 270.621 55.3831 275.294 55.4523 275.377Z" fill="white"/>
<path d="M70.0806 294.299C70.1941 294.446 76.316 289.959 83.7561 284.286C91.1961 278.613 97.1353 273.896 97.0267 273.749C96.9132 273.602 90.7913 278.089 83.3512 283.762C75.9112 289.435 69.972 294.152 70.0806 294.299Z" fill="white"/>
<path d="M84.709 313.22C84.8225 313.367 90.9444 308.881 98.3845 303.208C105.825 297.535 111.764 292.818 111.655 292.671C111.542 292.524 105.42 297.01 97.9796 302.683C90.5396 308.356 84.6004 313.073 84.709 313.22Z" fill="white"/>
<path d="M99.3374 332.137C99.451 332.284 105.573 327.797 113.013 322.124C120.453 316.451 126.392 311.735 126.284 311.587C126.17 311.44 120.048 315.927 112.608 321.6C105.168 327.273 99.2288 331.99 99.3374 332.137Z" fill="white"/>
<path d="M113.966 351.058C114.035 351.147 120.117 346.616 127.557 340.943C134.998 335.27 140.976 330.597 140.907 330.514C140.838 330.426 134.756 334.956 127.316 340.629C119.876 346.302 113.897 350.975 113.966 351.058Z" fill="white"/>
<path d="M128.594 369.98C128.619 370.009 134.667 365.434 142.107 359.761C149.547 354.088 155.56 349.465 155.536 349.435C155.511 349.406 149.463 353.98 142.023 359.653C134.583 365.326 128.57 369.95 128.594 369.98Z" fill="white"/>
</svg>
