<?xml version="1.0" encoding="UTF-8"?>
<svg id="Livello_2" xmlns="http://www.w3.org/2000/svg" viewBox="0 0 539.02 583.37">
  <defs>
    <style>
      .cls-1 {
        fill: #fff;
      }

      .cls-2 {
        fill: none;
        stroke: #020202;
        stroke-miterlimit: 10;
        stroke-width: 6px;
      }

      .cls-3 {
        fill: #ffbf1f;
      }
    </style>
  </defs>
  <g id="_Слой_1" data-name="Слой_1">
    <g id="message">
      <g id="message-2" data-name="message">
        <path class="cls-1" d="M526.54,208.49C494.5,64.87,352.11-25.59,208.49,6.45,64.87,38.48-25.59,180.88,6.45,324.5c11.04,49.48,35.18,92.64,67.95,126.67l-45.53,111.56,140.67-48.04c47.67,18.68,101.23,23.84,154.96,11.86,143.62-32.04,234.08-174.43,202.04-318.05Z"/>
        <g>
          <g>
            <circle class="cls-3" cx="167.33" cy="293.94" r="29.37"/>
            <circle class="cls-3" cx="266.31" cy="281.31" r="29.37"/>
            <circle class="cls-3" cx="365.3" cy="268.69" r="29.37"/>
          </g>
          <g>
            <circle class="cls-2" cx="170.83" cy="286.49" r="29.37"/>
            <circle class="cls-2" cx="269.82" cy="273.86" r="29.37"/>
            <circle class="cls-2" cx="368.8" cy="261.24" r="29.37"/>
          </g>
        </g>
      </g>
      <path class="cls-2" d="M529.58,224.16C497.54,80.54,355.14-9.91,211.52,22.12,67.9,54.16-22.55,196.56,9.48,340.17c11.04,49.48,35.18,92.64,67.95,126.67l-45.53,111.56,140.67-48.04c47.67,18.68,101.23,23.84,154.96,11.86,143.62-32.04,234.08-174.43,202.04-318.05Z"/>
    </g>
  </g>
</svg>