<?xml version="1.0" encoding="UTF-8"?>
<svg id="Livello_2" xmlns="http://www.w3.org/2000/svg" viewBox="0 0 453.22 437.89">
  <defs>
    <style>
      .cls-1 {
        stroke: #fff;
        stroke-width: 4px;
      }

      .cls-1, .cls-2 {
        fill: none;
        stroke-linecap: round;
        stroke-linejoin: round;
      }

      .cls-3 {
        fill: #ffbf1f;
      }

      .cls-2 {
        stroke: #000;
        stroke-width: 6px;
      }
    </style>
  </defs>
  <g id="_Слой_1" data-name="Слой_1">
    <g id="pencil">
      <path class="cls-3" d="M101.37,7.29l311.11,297.64c4.72,4.52,8.2,10.18,10.11,16.44l14.7,48.44,15.7,51.73c.56,1.82.08,3.8-1.24,5.18l-9.13,9.54c-1.32,1.38-3.28,1.94-5.12,1.47l-52.37-13.4-49.04-12.55c-6.34-1.62-12.15-4.85-16.87-9.37L8.11,104.77c-10.49-10.03-10.86-26.66-.83-37.15L64.22,8.11c10.03-10.48,26.66-10.85,37.15-.82Z"/>
      <path d="M437.29,369.81l15.7,51.73c.56,1.82.08,3.8-1.24,5.18l-9.13,9.54c-1.32,1.38-3.28,1.94-5.12,1.47l-52.37-13.4,52.16-54.52Z"/>
      <line class="cls-1" x1="132.85" y1="37.41" x2="39.59" y2="134.88"/>
      <g>
        <line class="cls-2" x1="88.24" y1="134.79" x2="352.64" y2="387.74"/>
        <line class="cls-2" x1="136.05" y1="85.26" x2="400.46" y2="338.22"/>
        <line class="cls-2" x1="112.26" y1="110.13" x2="376.66" y2="363.09"/>
      </g>
    </g>
  </g>
</svg>