<svg width="326" height="260" viewBox="0 0 326 260" fill="none" xmlns="http://www.w3.org/2000/svg">
<path d="M185.506 86.098L170.59 82.9889C169.075 82.674 167.85 81.5745 167.381 80.1134C166.144 76.259 164.597 72.5399 162.769 68.9856C162.07 67.6254 162.157 65.9995 162.998 64.7204L171.306 52.0921C173.511 48.7395 173.047 44.3144 170.196 41.4833L158.046 29.4306C155.192 26.5994 150.731 26.1394 147.352 28.3286L134.749 36.49C133.452 37.3288 131.8 37.4124 130.427 36.7065C126.797 34.842 122.991 33.2628 119.043 32.0035C117.576 31.5336 116.477 30.321 116.16 28.8255L113.073 14.2466C112.242 10.3307 108.761 7.52661 104.727 7.52661H87.5463C83.5121 7.52661 80.0284 10.3307 79.2003 14.2466L76.1207 28.791C75.8034 30.289 74.7 31.5041 73.2321 31.9715C69.2674 33.2333 65.4465 34.8125 61.7991 36.6819C60.4255 37.3854 58.7766 37.3042 57.4798 36.4654L44.9212 28.3335C41.5416 26.1468 37.081 26.6068 34.2295 29.4355L22.08 41.4882C19.2261 44.3194 18.7624 48.7444 20.9692 52.097L29.2209 64.6393C30.064 65.9183 30.1508 67.5491 29.4491 68.9094C27.5993 72.4932 26.0373 76.2467 24.7901 80.1405C24.3214 81.6041 23.0941 82.7011 21.5816 83.0184L6.774 86.1054C2.82663 86.9294 0 90.3829 0 94.3848V111.428C0 115.43 2.82663 118.886 6.774 119.708L21.7576 122.832C23.2602 123.144 24.4826 124.231 24.9587 125.68C26.2108 129.488 27.763 133.158 29.5879 136.668C30.297 138.033 30.2152 139.669 29.3697 140.955L20.9741 153.716C18.7698 157.069 19.2335 161.494 22.0849 164.325L34.2345 176.378C37.0884 179.209 41.549 179.669 44.9261 177.48L57.9162 169.067C59.2056 168.234 60.8445 168.147 62.2157 168.839C65.7043 170.6 69.3492 172.098 73.1255 173.303C74.5934 173.773 75.6967 174.986 76.0141 176.483L79.2077 191.562C80.0383 195.478 83.5196 198.282 87.5537 198.282H104.734C108.768 198.282 112.252 195.478 113.08 191.562L116.281 176.447C116.599 174.951 117.697 173.738 119.162 173.269C122.921 172.061 126.551 170.565 130.023 168.809C131.394 168.115 133.035 168.199 134.325 169.035L147.359 177.475C150.739 179.661 155.2 179.202 158.053 176.373L170.203 164.32C173.057 161.489 173.521 157.064 171.314 153.711L162.861 140.866C162.016 139.583 161.934 137.947 162.641 136.584C164.446 133.106 165.98 129.471 167.22 125.7C167.696 124.251 168.916 123.164 170.421 122.851L185.511 119.705C189.459 118.881 192.285 115.428 192.285 111.426V94.3824C192.285 90.3804 189.459 86.9245 185.511 86.1029L185.506 86.098ZM96.1402 140.901C74.9851 140.901 57.8344 123.887 57.8344 102.9C57.8344 81.914 74.9851 64.9 96.1402 64.9C117.295 64.9 134.446 81.914 134.446 102.9C134.446 123.887 117.295 140.901 96.1402 140.901Z" fill="#628CED"/>
<path d="M100.81 134.874C121.966 134.874 139.116 117.861 139.116 96.874C139.116 75.8869 121.966 58.8735 100.81 58.8735C79.6545 58.8735 62.5044 75.8869 62.5044 96.874C62.5044 117.861 79.6545 134.874 100.81 134.874Z" stroke="black" stroke-width="3" stroke-miterlimit="10"/>
<path d="M196.952 105.394V88.3509C196.952 84.3489 194.125 80.8929 190.178 80.0714L175.261 76.9623C173.746 76.6474 172.521 75.5479 172.053 74.0868C170.815 70.2324 169.268 66.5133 167.441 62.959C166.742 61.5988 166.828 59.9729 167.669 58.6938L175.978 46.0655C178.182 42.7129 177.718 38.2878 174.867 35.4567L162.717 23.404C159.864 20.5728 155.403 20.1128 152.023 22.302L139.42 30.4634C138.123 31.3022 136.472 31.3858 135.098 30.6799C131.468 28.8154 127.662 27.2362 123.715 25.9768C122.247 25.507 121.149 24.2944 120.831 22.7989L117.744 8.22C116.914 4.3041 113.432 1.5 109.398 1.5H92.2177C88.1836 1.5 84.6999 4.3041 83.8717 8.22L80.7922 22.7644C80.4748 24.2624 79.3714 25.4775 77.9035 25.9449C73.9388 27.2067 70.1179 28.7859 66.4706 30.6553C65.0969 31.3587 63.448 31.2776 62.1513 30.4388L49.5926 22.3069C46.213 20.1202 41.7524 20.5802 38.8985 23.4089L26.7489 35.4616C23.895 38.2927 23.4313 42.7178 25.6381 46.0704L33.8899 58.6126C34.7329 59.8917 34.8197 61.5225 34.118 62.8827C32.2683 66.4666 30.7062 70.2201 29.459 74.1139C28.9904 75.5774 27.763 76.6745 26.2505 76.9918L11.4429 80.0788C7.49558 80.9028 4.66895 84.3562 4.66895 88.3582V105.402C4.66895 109.404 7.49558 112.86 11.4429 113.681L26.4266 116.805C27.9292 117.117 29.1516 118.205 29.6276 119.653C30.8798 123.461 32.4319 127.131 34.2569 130.641C34.966 132.006 34.8842 133.642 34.0387 134.928L25.6431 147.69C23.4388 151.042 23.9025 155.467 26.7539 158.298L38.9034 170.351C41.7574 173.182 46.218 173.642 49.5951 171.453L62.5852 163.041C63.8745 162.207 65.5135 162.121 66.8846 162.812C70.3733 164.573 74.0182 166.071 77.7944 167.276C79.2623 167.746 80.3657 168.959 80.6831 170.457L83.8767 185.535C84.7073 189.451 88.1885 192.255 92.2227 192.255H109.403C113.437 192.255 116.921 189.451 117.749 185.535L120.95 170.42C121.268 168.924 122.366 167.712 123.831 167.242C127.59 166.034 131.22 164.539 134.692 162.783C136.063 162.089 137.704 162.172 138.994 163.009L152.028 171.448C155.408 173.635 159.868 173.175 162.722 170.346L174.872 158.293C177.726 155.462 178.19 151.037 175.983 147.685L167.53 134.84C166.685 133.556 166.603 131.92 167.309 130.557C169.115 127.079 170.649 123.444 171.889 119.673C172.365 118.224 173.585 117.137 175.09 116.825L190.18 113.679C194.128 112.855 196.954 109.401 196.954 105.399L196.952 105.394Z" stroke="black" stroke-width="3" stroke-miterlimit="10"/>
<path d="M315.282 173.93L303.922 171.562C302.768 171.322 301.835 170.485 301.478 169.372C300.536 166.436 299.358 163.604 297.966 160.897C297.433 159.861 297.499 158.623 298.14 157.649L304.468 148.031C306.146 145.477 305.793 142.107 303.622 139.951L294.368 130.772C292.195 128.616 288.798 128.265 286.224 129.933L276.625 136.148C275.638 136.787 274.38 136.851 273.334 136.313C270.569 134.893 267.67 133.69 264.664 132.731C263.546 132.374 262.71 131.45 262.468 130.311L260.117 119.208C259.484 116.225 256.833 114.09 253.761 114.09H240.676C237.604 114.09 234.95 116.225 234.32 119.208L231.974 130.285C231.733 131.426 230.892 132.351 229.774 132.707C226.755 133.668 223.845 134.871 221.067 136.294C220.021 136.83 218.765 136.768 217.777 136.13L208.213 129.936C205.639 128.271 202.242 128.621 200.07 130.776L190.817 139.955C188.644 142.111 188.29 145.481 189.971 148.035L196.256 157.587C196.898 158.561 196.964 159.803 196.429 160.839C195.021 163.568 193.831 166.427 192.881 169.392C192.524 170.507 191.589 171.343 190.437 171.584L179.16 173.935C176.154 174.563 174.001 177.193 174.001 180.241V193.221C174.001 196.269 176.154 198.901 179.16 199.527L190.572 201.906C191.716 202.144 192.647 202.972 193.009 204.075C193.963 206.975 195.145 209.77 196.535 212.443C197.075 213.483 197.013 214.729 196.369 215.709L189.975 225.427C188.296 227.981 188.649 231.351 190.821 233.507L200.074 242.686C202.247 244.843 205.645 245.193 208.217 243.526L218.11 237.119C219.092 236.484 220.34 236.418 221.384 236.945C224.041 238.286 226.817 239.427 229.693 240.345C230.811 240.703 231.651 241.626 231.893 242.767L234.325 254.251C234.958 257.233 237.609 259.368 240.682 259.368H253.766C256.839 259.368 259.492 257.233 260.123 254.251L262.561 242.739C262.802 241.6 263.639 240.676 264.755 240.319C267.618 239.399 270.382 238.26 273.026 236.922C274.07 236.394 275.32 236.458 276.302 237.095L286.23 243.522C288.803 245.187 292.201 244.837 294.374 242.683L303.627 233.503C305.801 231.347 306.154 227.977 304.473 225.424L298.036 215.641C297.392 214.663 297.329 213.418 297.868 212.38C299.242 209.731 300.411 206.962 301.355 204.09C301.718 202.987 302.647 202.159 303.793 201.921L315.286 199.525C318.292 198.897 320.445 196.267 320.445 193.219V180.239C320.445 177.191 318.292 174.559 315.286 173.933L315.282 173.93ZM247.221 215.667C231.109 215.667 218.048 202.71 218.048 186.726C218.048 170.743 231.109 157.785 247.221 157.785C263.333 157.785 276.395 170.743 276.395 186.726C276.395 202.71 263.333 215.667 247.221 215.667Z" fill="#628CED"/>
<path d="M250.777 211.078C266.889 211.078 279.95 198.12 279.95 182.137C279.95 166.153 266.889 153.196 250.777 153.196C234.665 153.196 221.603 166.153 221.603 182.137C221.603 198.12 234.665 211.078 250.777 211.078Z" stroke="black" stroke-width="3" stroke-miterlimit="10"/>
<path d="M323.999 188.626V175.645C323.999 172.598 321.846 169.965 318.84 169.34L307.479 166.972C306.326 166.732 305.393 165.895 305.036 164.782C304.093 161.846 302.915 159.014 301.523 156.307C300.991 155.271 301.057 154.033 301.697 153.059L308.025 143.441C309.704 140.888 309.351 137.518 307.179 135.361L297.926 126.182C295.752 124.026 292.355 123.675 289.781 125.343L280.183 131.558C279.195 132.197 277.937 132.261 276.891 131.723C274.127 130.303 271.228 129.101 268.222 128.142C267.104 127.784 266.267 126.86 266.026 125.721L263.675 114.618C263.042 111.636 260.391 109.5 257.318 109.5H244.234C241.161 109.5 238.508 111.636 237.877 114.618L235.532 125.695C235.29 126.836 234.45 127.761 233.332 128.117C230.312 129.078 227.402 130.281 224.625 131.705C223.578 132.24 222.323 132.179 221.335 131.54L211.77 125.346C209.197 123.681 205.799 124.031 203.626 126.186L194.373 135.365C192.199 137.521 191.846 140.891 193.527 143.445L199.811 152.997C200.453 153.971 200.519 155.213 199.985 156.249C198.576 158.978 197.387 161.837 196.437 164.803C196.08 165.917 195.145 166.753 193.993 166.994L182.716 169.345C179.709 169.973 177.557 172.603 177.557 175.651V188.631C177.557 191.679 179.709 194.311 182.716 194.937L194.127 197.316C195.272 197.554 196.203 198.382 196.565 199.485C197.519 202.385 198.701 205.18 200.091 207.854C200.631 208.893 200.568 210.139 199.925 211.119L193.53 220.838C191.852 223.391 192.205 226.761 194.376 228.917L203.63 238.097C205.803 240.253 209.2 240.603 211.772 238.936L221.666 232.529C222.647 231.894 223.896 231.828 224.94 232.355C227.597 233.696 230.373 234.837 233.249 235.755C234.367 236.113 235.207 237.036 235.449 238.177L237.881 249.661C238.514 252.643 241.165 254.779 244.237 254.779H257.322C260.394 254.779 263.048 252.643 263.678 249.661L266.116 238.149C266.358 237.01 267.194 236.087 268.31 235.729C271.173 234.809 273.938 233.67 276.582 232.332C277.626 231.804 278.876 231.868 279.858 232.505L289.785 238.932C292.359 240.598 295.756 240.247 297.93 238.093L307.183 228.914C309.356 226.757 309.71 223.387 308.029 220.834L301.591 211.051C300.947 210.073 300.885 208.828 301.423 207.79C302.798 205.141 303.967 202.372 304.911 199.5C305.274 198.397 306.203 197.569 307.349 197.331L318.842 194.935C321.848 194.308 324.001 191.677 324.001 188.629L323.999 188.626Z" stroke="black" stroke-width="3" stroke-miterlimit="10"/>
</svg>
