<svg width="128" height="127" viewBox="0 0 128 127" fill="none" xmlns="http://www.w3.org/2000/svg">
<rect width="128" height="127" rx="22.5908" fill="#F7C8B6"/>
<path d="M48.5236 28.4083C43.0233 29.9262 37.5606 31.5778 32.1403 33.3616C31.645 33.5217 31.2046 33.8182 30.8697 34.2173C30.5347 34.6164 30.3186 35.1019 30.2461 35.6183C27.0468 59.6729 34.4387 77.2235 43.2569 88.7849C46.9888 93.7303 51.4409 98.086 56.4641 101.706C58.4622 103.118 60.2293 104.137 61.621 104.79C62.314 105.118 62.878 105.346 63.3131 105.473C63.5049 105.532 63.6995 105.58 63.8963 105.618C64.0912 105.58 64.2839 105.531 64.4738 105.473C64.9127 105.342 65.4786 105.114 66.1716 104.79C67.5576 104.137 69.3305 103.112 71.3286 101.706C76.3518 98.086 80.8038 93.7303 84.5357 88.7849C93.354 77.2292 100.746 59.6729 97.5465 35.6183C97.4741 35.1019 97.258 34.6164 96.923 34.2173C96.588 33.8182 96.1477 33.5217 95.6524 33.3616C91.8929 32.1291 85.5463 30.1211 79.2691 28.4141C72.8589 26.6724 66.9628 25.382 63.8963 25.382C60.8356 25.382 54.9337 26.6666 48.5236 28.4083ZM46.9875 22.4482C53.2532 20.7412 59.9117 19.2078 63.8963 19.2078C67.881 19.2078 74.5394 20.7412 80.8052 22.4482C87.2153 24.1842 93.6774 26.2384 97.4772 27.4825C99.066 28.0082 100.474 28.9723 101.541 30.2641C102.607 31.5558 103.289 33.1228 103.506 34.7851C106.948 60.6914 98.9614 79.891 89.2711 92.5925C85.1603 98.0244 80.2609 102.809 74.7358 106.787C72.8273 108.167 70.8023 109.377 68.6837 110.403C67.0667 111.167 65.3285 111.792 63.8963 111.792C62.4642 111.792 60.7317 111.167 59.109 110.403C56.9904 109.377 54.9653 108.167 53.0569 106.787C47.5318 102.809 42.6323 98.0244 38.5215 92.5925C28.8313 79.891 20.8446 60.6914 24.2865 34.7851C24.5041 33.1228 25.1853 31.5558 26.2517 30.2641C27.3182 28.9723 28.7267 28.0082 30.3154 27.4825C35.8319 25.6714 41.3909 23.9928 46.9875 22.4482Z" fill="#CD3A19"/>
</svg>
